<?xml version="1.0" encoding="utf-8"?>
<!-- Generator: Adobe Illustrator 14.0.0, SVG Export Plug-In . SVG Version: 6.00 Build 43363)  -->
<!DOCTYPE svg PUBLIC "-//W3C//DTD SVG 1.1//EN" "http://www.w3.org/Graphics/SVG/1.1/DTD/svg11.dtd">
<svg version="1.1" id="Layer_1" xmlns="http://www.w3.org/2000/svg" xmlns:xlink="http://www.w3.org/1999/xlink" x="0px" y="0px"
	 width="40px" height="40px" viewBox="0 0 40 40" enable-background="new 0 0 40 40" xml:space="preserve">
<g>
	<rect fill="none" width="40" height="40"/>
	<g>
		<path fill="#FFFFFF" d="M5.437,36.823c0,0-0.03,0.896,0.838,0.896c1.089,0,10.082-0.015,10.082-0.015l0.016-8.262
			c0,0-0.139-1.358,1.184-1.358h4.178c1.568,0,1.468,1.358,1.468,1.358l-0.015,8.24h9.866c1.113,0,1.062-1.113,1.062-1.113V21.334
			L20.202,8.965L5.437,21.334V36.823z M5.437,36.823"/>
		<path fill="#FFFFFF" d="M0,20.184c0,0,1.25,2.313,3.989,0l16.335-13.82l15.324,13.733c3.166,2.284,4.352,0,4.352,0L20.324,2.28
			L0,20.184z M0,20.184"/>
		<path fill="#FFFFFF" d="M35.272,6.327h-3.938l0.014,4.78l3.925,3.33V6.327z M35.272,6.327"/>
	</g>
</g>
</svg>
