<?xml version="1.0" encoding="utf-8"?>
<!-- Generator: Adobe Illustrator 14.0.0, SVG Export Plug-In . SVG Version: 6.00 Build 43363)  -->
<!DOCTYPE svg PUBLIC "-//W3C//DTD SVG 1.1//EN" "http://www.w3.org/Graphics/SVG/1.1/DTD/svg11.dtd">
<svg version="1.1" id="Layer_1" xmlns="http://www.w3.org/2000/svg" xmlns:xlink="http://www.w3.org/1999/xlink" x="0px" y="0px"
	 width="40px" height="40px" viewBox="0 0 40 40" enable-background="new 0 0 40 40" xml:space="preserve">
<g>
	<rect fill="none" width="40" height="40"/>
</g>
<path fill="#FFFFFF" d="M39.789,13.099c0.527-1.645,0.061-3.718-1.374-5.324c-0.621-0.694-1.347-1.223-2.11-1.566
	c-0.219-0.361-0.481-0.712-0.778-1.048c-1.284-1.438-2.979-2.21-4.537-2.219c-1.091-0.837-2.562-1.473-4.237-1.734
	c-1.317-0.207-2.588-0.155-3.699,0.104c-0.966-0.421-2.104-0.593-3.297-0.443c-1.24,0.159-2.339,0.64-3.181,1.331
	c-1.33-0.601-3.044-0.635-4.675,0.038c-1.404,0.58-2.481,1.567-3.09,2.705c-1.091,0.24-2.193,0.82-3.133,1.721
	c-1.336,1.28-2.041,2.92-2.036,4.413c-1.623,0.902-2.653,2.452-2.58,4.104c-0.433,0.662-0.759,1.438-0.931,2.292
	c-0.297,1.481-0.073,2.915,0.528,4.048c-0.043,2.502,1.36,4.662,3.473,5.082c0.137,0.025,0.274,0.047,0.413,0.061
	c-0.074,0.519-0.065,1.048,0.043,1.575c0.604,3.052,4.108,4.928,7.825,4.188c0.168-0.034,0.334-0.072,0.499-0.115
	c0.553,0.889,1.704,0.507,1.704,0.507v3.288c0,0.352,0.133,0.687,0.377,0.943l1.819,1.919c0.426,0.451,1.182,0.146,1.182-0.472
	V34.78c0.111-3.353,1.343-5.01,2.395-5.642c1.417-0.854,1.396-2.63,1.386-3.279c1.118,0.589,2.881,0.924,4.358,0.756
	c6.662-0.769,7.01-5.25,7.229-5.983c1.944,0.146,3.73-0.678,4.503-2.262c0.107-0.223,0.193-0.454,0.254-0.687
	c0.643-0.382,1.171-0.927,1.505-1.614C40.076,15.142,40.107,14.095,39.789,13.099L39.789,13.099z M39.789,13.099"/>
</svg>
