<?xml version="1.0" encoding="utf-8"?>
<!-- Generator: Adobe Illustrator 14.0.0, SVG Export Plug-In . SVG Version: 6.00 Build 43363)  -->
<!DOCTYPE svg PUBLIC "-//W3C//DTD SVG 1.1//EN" "http://www.w3.org/Graphics/SVG/1.1/DTD/svg11.dtd">
<svg version="1.1" id="Layer_1" xmlns="http://www.w3.org/2000/svg" xmlns:xlink="http://www.w3.org/1999/xlink" x="0px" y="0px"
	 width="40px" height="40px" viewBox="0 0 40 40" enable-background="new 0 0 40 40" xml:space="preserve">
<g>
	<rect fill="none" width="40" height="40"/>
	<g>
		<path fill="#FFFFFF" d="M3.839,13.975c0.506,0.356,2.031,1.416,4.575,3.18c2.546,1.764,4.495,3.122,5.849,4.073
			c0.149,0.104,0.466,0.332,0.949,0.681c0.484,0.351,0.886,0.633,1.206,0.849c0.319,0.216,0.706,0.457,1.161,0.726
			c0.453,0.268,0.881,0.469,1.283,0.603c0.403,0.134,0.775,0.2,1.117,0.2h0.044c0.343,0,0.714-0.066,1.117-0.2
			c0.401-0.134,0.83-0.336,1.283-0.603c0.453-0.269,0.84-0.51,1.161-0.726c0.32-0.216,0.722-0.498,1.204-0.849
			c0.484-0.349,0.802-0.576,0.95-0.681c1.368-0.952,4.851-3.37,10.446-7.255c1.086-0.759,1.993-1.674,2.723-2.745
			C39.635,10.156,40,9.033,40,7.857c0-0.981-0.354-1.823-1.061-2.522c-0.707-0.7-1.544-1.049-2.512-1.049H3.572
			c-1.146,0-2.028,0.387-2.646,1.161C0.309,6.221,0,7.188,0,8.349c0,0.938,0.409,1.953,1.228,3.048
			C2.045,12.489,2.917,13.35,3.839,13.975L3.839,13.975z M3.839,13.975"/>
		<path fill="#FFFFFF" d="M37.768,16.362c-4.881,3.302-8.586,5.87-11.115,7.7c-0.849,0.626-1.537,1.112-2.065,1.462
			c-0.527,0.351-1.231,0.707-2.108,1.071c-0.879,0.365-1.697,0.547-2.457,0.547h-0.044c-0.76,0-1.579-0.182-2.456-0.547
			c-0.877-0.364-1.582-0.721-2.11-1.071c-0.527-0.35-1.216-0.836-2.064-1.462c-2.009-1.474-5.707-4.041-11.094-7.7
			C1.406,15.796,0.654,15.148,0,14.42v17.722c0,0.983,0.349,1.824,1.049,2.523c0.699,0.699,1.541,1.049,2.523,1.049h32.856
			c0.982,0,1.824-0.35,2.523-1.049S40,33.125,40,32.142V14.42C39.359,15.134,38.615,15.781,37.768,16.362L37.768,16.362z
			 M37.768,16.362"/>
	</g>
</g>
</svg>
