<?xml version="1.0" encoding="utf-8"?>
<!-- Generator: Adobe Illustrator 14.0.0, SVG Export Plug-In . SVG Version: 6.00 Build 43363)  -->
<!DOCTYPE svg PUBLIC "-//W3C//DTD SVG 1.1//EN" "http://www.w3.org/Graphics/SVG/1.1/DTD/svg11.dtd">
<svg version="1.1" id="Layer_1" xmlns="http://www.w3.org/2000/svg" xmlns:xlink="http://www.w3.org/1999/xlink" x="0px" y="0px"
	 width="40px" height="40px" viewBox="0 0 40 40" enable-background="new 0 0 40 40" xml:space="preserve">
<g>
	<rect fill="none" width="40" height="40"/>
	<path fill="#FFFFFF" d="M37.662,33.686l-12.892-12.89c-0.121-0.122-0.248-0.231-0.384-0.331l2.284-2.402
		c0.115-0.118,0.227-0.243,0.33-0.368c3.03,1.144,6.586,0.501,9.021-1.936c1.777-1.776,2.676-4.235,2.457-6.746
		c-0.022-0.282-0.212-0.527-0.479-0.625c-0.268-0.098-0.569-0.03-0.771,0.172l-4.13,4.13l-4.184-1.056l-1.186-4.313l4.13-4.13
		c0.201-0.203,0.268-0.503,0.172-0.771c-0.099-0.27-0.344-0.456-0.629-0.48c-2.508-0.216-4.966,0.68-6.742,2.456
		c-2.435,2.434-3.08,5.99-1.939,9.021c-0.122,0.105-0.247,0.216-0.368,0.336l-3.36,3.227l-6.171-6.171
		c-0.079-0.076-0.16-0.145-0.246-0.209c0.074-0.127,0.145-0.257,0.208-0.393c1.306,0.25,3.686-2.287,5.71-4.309L12.603,0
		C9.967,2.635,8.041,4.404,8.292,5.71C7.688,6.004,7.15,6.363,6.77,6.745L5.938,7.574C5.401,8.115,5.075,8.787,4.959,9.486
		C4.878,9.577,4.798,9.675,4.716,9.778l-0.312,0.39c-0.008,0.01-0.035,0.047-0.042,0.057l-0.279,0.393
		c-0.177,0.235-0.329,0.488-0.479,0.733c-0.054,0.091-0.11,0.184-0.166,0.275c-0.01,0.015-0.018,0.029-0.024,0.047l-0.126,0.233
		c-0.151,0.282-0.306,0.577-0.442,0.898l-0.021,0.052c-0.157,0.372-0.321,0.76-0.434,1.173l-0.057,0.176
		C2.29,14.352,2.242,14.5,2.201,14.674l-0.116,0.567c-0.083,0.355-0.112,0.705-0.137,1.014l-0.018,0.203
		c-0.042,0.322-0.03,0.625-0.02,0.894c0.005,0.088,0.008,0.176,0.012,0.297c0.002,0.049,0.002,0.096,0.005,0.145
		c0.003,0.118,0.005,0.255,0.027,0.397l0.074,0.458c0.015,0.091,0.027,0.177,0.039,0.26c0.029,0.187,0.056,0.381,0.113,0.562
		l0.301,1.048c0.094,0.316,0.396,0.527,0.724,0.504c0.177-0.012,0.334-0.087,0.449-0.206c0.105-0.103,0.179-0.24,0.202-0.397
		l0.154-1.063c0.012-0.086,0.049-0.208,0.085-0.338c0.027-0.091,0.054-0.184,0.074-0.263l0.11-0.398
		c0.015-0.054,0.04-0.105,0.064-0.16c0.022-0.049,0.044-0.1,0.064-0.151c0.037-0.084,0.071-0.169,0.105-0.255
		c0.068-0.17,0.135-0.329,0.233-0.485c0.042-0.074,0.083-0.145,0.123-0.219c0.103-0.184,0.201-0.358,0.317-0.503
		c0.009-0.008,0.014-0.017,0.022-0.027l0.263-0.363c0.054-0.066,0.115-0.132,0.174-0.196c0.042-0.047,0.084-0.091,0.135-0.153
		c0.154-0.187,0.335-0.348,0.513-0.507l0.093-0.086c0.13-0.12,0.279-0.233,0.439-0.353c0.063-0.05,0.127-0.096,0.191-0.143
		c0.078-0.054,0.157-0.106,0.233-0.157c0.143-0.096,0.265-0.179,0.407-0.252L7.97,14.17l0.314-0.155
		c0.11-0.057,0.218-0.1,0.318-0.14c0.059-0.027,0.118-0.049,0.172-0.074c0.054-0.02,0.108-0.039,0.157-0.058
		C9,13.719,9.06,13.697,9.138,13.674l0.083-0.017c0.093,0.15,0.201,0.292,0.331,0.422l6.105,6.103L2.628,32.699
		c-0.005,0.006-0.01,0.01-0.015,0.016c-1.622,1.621-1.888,3.994-0.265,5.617c1.622,1.621,3.845,1.207,5.467-0.416
		c0.008-0.008,0.013-0.012,0.021-0.02l11.496-12.104c0.066,0.078,0.132,0.158,0.208,0.232l12.891,12.893
		c1.443,1.443,3.786,1.443,5.231,0C39.105,37.473,39.105,35.129,37.662,33.686L37.662,33.686z M6.132,36.578
		c-0.597,0.6-1.565,0.6-2.163,0c-0.596-0.596-0.596-1.564,0-2.16c0.597-0.596,1.565-0.596,2.163,0
		C6.729,35.014,6.729,35.982,6.132,36.578L6.132,36.578z M6.132,36.578"/>
</g>
</svg>
