<?xml version="1.0" encoding="utf-8"?>
<!-- Generator: Adobe Illustrator 14.0.0, SVG Export Plug-In . SVG Version: 6.00 Build 43363)  -->
<!DOCTYPE svg PUBLIC "-//W3C//DTD SVG 1.1//EN" "http://www.w3.org/Graphics/SVG/1.1/DTD/svg11.dtd">
<svg version="1.1" id="Layer_1" xmlns="http://www.w3.org/2000/svg" xmlns:xlink="http://www.w3.org/1999/xlink" x="0px" y="0px"
	 width="250px" height="264.83px" viewBox="-42.046 -44.54 250 264.83" enable-background="new -42.046 -44.54 250 264.83"
	 xml:space="preserve">
<g>
	<polygon fill="#B4B4B4" points="82.555,-44.54 -42.046,-0.69 -22.356,162.556 82.687,220.29 188.272,161.774 207.954,-1.467 	"/>
	<polygon fill="#A51E22" points="195.525,7.968 82.264,-30.656 82.264,206.496 177.183,153.965 	"/>
	<polygon fill="#DC2226" points="-28.064,8.664 -11.191,154.662 82.263,206.496 82.263,-30.661 	"/>
	<path fill="#F3F3F3" d="M113.441,95.592L82.264,110.17h-32.86l-15.447,38.636L5.226,149.34L82.264-22.044L113.441,95.592z
		 M110.428,88.252L82.47,32.906L59.539,87.3h22.724L110.428,88.252z"/>
	<polygon fill="#B4B4B4" points="82.263,-22.044 82.468,32.906 108.488,87.342 82.321,87.342 82.263,110.137 118.446,110.17 
		135.358,149.344 162.85,149.854 	"/>
</g>
</svg>
