<?xml version="1.0" encoding="utf-8"?>
<!-- Generator: Adobe Illustrator 14.0.0, SVG Export Plug-In . SVG Version: 6.00 Build 43363)  -->
<!DOCTYPE svg PUBLIC "-//W3C//DTD SVG 1.1//EN" "http://www.w3.org/Graphics/SVG/1.1/DTD/svg11.dtd">
<svg version="1.1" id="Layer_1" xmlns="http://www.w3.org/2000/svg" xmlns:xlink="http://www.w3.org/1999/xlink" x="0px" y="0px"
	 width="120px" height="119.999px" viewBox="-11.5 -11.499 120 119.999" enable-background="new -11.5 -11.499 120 119.999"
	 xml:space="preserve">
<path fill="#F05133" d="M106.246,43.144L53.855-9.246c-3.004-3.004-7.968-3.004-10.974,0L32.038,1.598l13.849,13.849
	c3.265-1.045,6.923-0.392,9.407,2.221c2.613,2.613,3.267,6.271,2.222,9.538L70.84,40.53c3.268-1.045,6.926-0.392,9.539,2.221
	c3.657,3.658,3.657,9.407,0,13.063c-3.658,3.66-9.406,3.66-13.064,0c-2.744-2.742-3.397-6.662-1.959-10.059L52.941,33.345v32.662
	c0.914,0.394,1.699,1.045,2.481,1.698c3.658,3.658,3.658,9.406,0,13.064c-3.526,3.527-9.406,3.527-13.064,0
	c-3.527-3.658-3.527-9.406,0-13.064c0.915-0.914,1.959-1.566,3.005-1.959V32.691c-1.046-0.392-2.091-1.176-3.005-1.959
	c-2.743-2.744-3.396-6.663-1.96-10.06L26.682,6.954L-9.247,42.882c-3.004,3.005-3.004,7.97,0,10.974l52.39,52.391
	c3.005,3.005,7.97,3.005,10.974,0l52.129-52.129C109.251,51.113,109.251,46.148,106.246,43.144z"/>
</svg>
