<?xml version="1.0" encoding="utf-8"?>
<!-- Generator: Adobe Illustrator 14.0.0, SVG Export Plug-In . SVG Version: 6.00 Build 43363)  -->
<!DOCTYPE svg PUBLIC "-//W3C//DTD SVG 1.1//EN" "http://www.w3.org/Graphics/SVG/1.1/DTD/svg11.dtd">
<svg version="1.1" id="Layer_1" xmlns="http://www.w3.org/2000/svg" xmlns:xlink="http://www.w3.org/1999/xlink" x="0px" y="0px"
	 width="173.814px" height="385.298px" viewBox="0 0 173.814 385.298" enable-background="new 0 0 173.814 385.298"
	 xml:space="preserve">
<g>
	<path fill="#E94A4B" d="M85.96,304.038c-22.574,0-40.017-3.392-48.405-5.413c-5.736-1.382-10.342-2.812-13.841-4.28l11.187,19.112
		l4.376,59.72c0,6.694,21.268,12.121,47.503,12.121s47.503-5.427,47.503-12.121l3.465-60.369l10.585-18.519
		c-3.513,1.488-8.161,2.938-13.969,4.336C125.976,300.646,108.533,304.038,85.96,304.038"/>
	<path fill="#E94A4B" d="M148.697,109.709c-16.569,2.315-38.558,3.589-61.917,3.589c-23.359,0-45.348-1.274-61.916-3.589
		c-8.207-1.146-14.7-2.497-19.299-4.016c-1.097-0.363-2.956-0.982-4.745-1.968l10.265,94.474c0.477-1.627,1.009-3.252,1.598-4.871
		c1.204-3.318,2.598-6.562,4.18-9.731c1.583-3.169,3.306-6.164,5.169-8.985c1.862-2.82,3.845-5.416,5.946-7.789
		c2.102-2.372,4.258-4.413,6.472-6.122c2.213-1.709,4.447-3.044,6.702-4.007c2.256-0.962,4.49-1.444,6.703-1.444
		c2.549,0,5.015,0.697,7.397,2.091c2.381,1.393,4.607,3.651,6.682,6.769c0.475,0.697,0.777,1.402,0.902,2.115
		c0.127,0.714,0.189,1.386,0.189,2.016c0,1.493-0.357,2.672-1.071,3.534c-0.714,0.864-1.562,1.294-2.542,1.294
		c-0.897,0-1.731-0.472-2.501-1.418c-0.771-0.946-1.632-2.298-2.585-4.057c-0.896-1.593-1.884-2.745-2.962-3.459
		c-1.079-0.713-2.248-1.07-3.509-1.07c-1.961,0-4.054,0.813-6.282,2.439c-2.227,1.626-4.433,3.775-6.618,6.446
		c-2.186,2.671-4.28,5.723-6.283,9.158c-2.003,3.434-3.776,6.951-5.317,10.552s-2.765,7.152-3.675,10.652
		c-0.912,3.5-1.367,6.644-1.367,9.432c0,0.929,0.064,1.884,0.189,2.861c0.127,0.98,0.364,1.867,0.715,2.664
		c0.349,0.797,0.826,1.451,1.428,1.965c0.603,0.515,1.367,0.771,2.29,0.771c1.037,0,2.213-0.347,3.531-1.045
		c1.316-0.695,2.682-1.609,4.096-2.736c1.415-1.129,2.837-2.406,4.266-3.834c1.43-1.426,2.76-2.869,3.992-4.33
		c1.233-1.459,2.325-2.861,3.278-4.205c0.953-1.344,1.667-2.514,2.143-3.51l3.908-11.697c0.476-1.26,1.099-2.156,1.87-2.687
		c0.77-0.53,1.562-0.797,2.375-0.797c0.391,0,0.784,0.067,1.176,0.2c0.393,0.132,0.742,0.34,1.051,0.622s0.553,0.647,0.735,1.095
		c0.182,0.448,0.273,0.971,0.273,1.567c0,1.593-0.14,3.086-0.42,4.48c-0.279,1.395-0.637,2.754-1.071,4.082
		c-0.435,1.327-0.918,2.662-1.451,4.006c-0.532,1.344-1.05,2.746-1.554,4.207c-0.112,0.166-0.315,0.688-0.61,1.567
		c-0.294,0.881-0.65,1.984-1.071,3.31c-0.42,1.328-0.876,2.813-1.366,4.455c-0.49,1.643-0.994,3.319-1.512,5.028
		c-0.519,1.709-1.016,3.384-1.492,5.027c-0.477,1.643-0.904,3.127-1.281,4.455c-0.379,1.326-0.694,2.438-0.947,3.334
		c-0.252,0.897-0.406,1.426-0.462,1.594c-0.14,0.529-0.365,1.119-0.671,1.765c-0.309,0.647-0.673,1.262-1.094,1.842
		c-0.42,0.58-0.882,1.063-1.387,1.444c-0.504,0.38-1.022,0.572-1.555,0.572c-0.896,0-1.547-0.299-1.953-0.895
		c-0.407-0.597-0.609-1.693-0.609-3.285v-0.697c0-0.233,0.014-0.483,0.041-0.746c0.027-0.531,0.238-1.528,0.631-2.988
		c0.392-1.459,0.861-3.11,1.408-4.952c0.546-1.841,1.135-3.75,1.765-5.724c0.63-1.975,1.197-3.741,1.702-5.301
		c-1.487,1.66-3.096,3.31-4.833,4.953c-1.738,1.643-3.517,3.119-5.337,4.43c-1.821,1.31-3.656,2.381-5.505,3.211
		c-1.849,0.828-3.628,1.244-5.337,1.244c-1.961,0-3.649-0.432-5.064-1.295c-0.256-0.156-0.496-0.332-0.737-0.506l5.712,59.888
		c1.487,3.727,29.481,12.885,66.391,12.885c36.927,0,64.932-9.167,66.394-12.89l8.205-71.203c-0.68,0.623-1.34,1.232-1.973,1.822
		c-2.354,2.189-4.574,4.072-6.662,5.648c-2.086,1.577-4.125,2.797-6.114,3.659c-1.99,0.863-4.119,1.295-6.388,1.295
		c-2.129,0-3.776-0.465-4.938-1.395c-1.162-0.928-1.744-2.205-1.744-3.832v-0.373c0-0.115,0.014-0.258,0.043-0.424
		c0.111-0.994,0.547-2.14,1.303-3.433c0.756-1.295,1.666-2.639,2.73-4.032c1.065-1.394,2.2-2.804,3.405-4.232
		c1.205-1.426,2.318-2.777,3.341-4.057c1.022-1.275,1.87-2.445,2.541-3.508c0.674-1.062,1.01-1.923,1.01-2.587
		c0-0.399-0.14-0.713-0.42-0.948c-0.281-0.23-0.744-0.347-1.386-0.347c-1.122,0-2.278,0.291-3.467,0.871
		c-1.192,0.58-2.369,1.361-3.531,2.34c-1.163,0.978-2.297,2.099-3.405,3.359c-1.105,1.262-2.142,2.572-3.109,3.932
		c-0.967,1.361-1.848,2.73-2.647,4.107c-0.798,1.377-1.478,2.646-2.039,3.807c-0.168,0.365-0.406,0.88-0.715,1.543
		c-0.308,0.664-0.644,1.412-1.007,2.24c-0.366,0.83-0.75,1.685-1.157,2.562c-0.406,0.881-0.777,1.711-1.113,2.491
		c-0.336,0.779-0.637,1.474-0.902,2.089c-0.268,0.614-0.457,1.038-0.569,1.27c-0.14,0.299-0.371,0.861-0.693,1.691
		c-0.322,0.83-0.693,1.801-1.113,2.912c-0.42,1.112-0.862,2.282-1.324,3.51c-0.461,1.227-0.897,2.389-1.303,3.485
		c-0.406,1.093-0.764,2.056-1.071,2.886c-0.308,0.828-0.505,1.394-0.589,1.692c-0.28,0.863-0.61,1.675-0.987,2.44
		c-0.379,0.762-0.812,1.434-1.302,2.016c-0.491,0.58-1.051,1.045-1.682,1.392c-0.631,0.351-1.338,0.524-2.121,0.524
		c-1.01,0-1.842-0.242-2.502-0.723c-0.656-0.48-0.986-1.402-0.986-2.763c0-0.664,0.084-1.343,0.252-2.04
		c0.167-0.696,0.378-1.386,0.63-2.065c0.252-0.682,0.512-1.344,0.778-1.99c0.265-0.649,0.511-1.27,0.734-1.867
		c1.514-3.319,3.055-6.645,4.623-9.981c1.569-3.334,3.074-6.635,4.518-9.904c0.301-0.682,0.576-1.35,0.869-2.028
		c-0.088,0.086-0.174,0.176-0.26,0.26c-1.822,1.76-3.635,3.311-5.441,4.654c-1.809,1.344-3.602,2.415-5.379,3.211
		c-1.78,0.795-3.51,1.194-5.192,1.194c-1.148,0-2.107-0.182-2.877-0.547c-0.771-0.365-1.386-0.863-1.849-1.492
		c-0.463-0.631-0.793-1.377-0.989-2.241c-0.066-0.294-0.107-0.603-0.15-0.91c-0.492,0.383-0.988,0.756-1.488,1.11
		c-1.737,1.226-3.446,2.215-5.127,2.961c-1.68,0.746-3.194,1.119-4.537,1.119c-1.346,0-2.438-0.447-3.279-1.344
		c-0.84-0.894-1.26-2.422-1.26-4.578c0-1.527,0.224-3.303,0.672-5.326c-0.729,1.295-1.639,2.605-2.731,3.931
		c-1.094,1.329-2.34,2.539-3.74,3.635c-1.402,1.094-2.971,1.983-4.707,2.662c-1.738,0.68-3.629,1.02-5.673,1.02
		c-0.925,0-1.814-0.115-2.669-0.348c-0.854-0.232-1.604-0.631-2.248-1.195c-0.645-0.563-1.162-1.319-1.555-2.264
		c-0.392-0.945-0.588-2.133-0.588-3.558c0-0.034,0.056-0.54,0.168-1.52c0.112-0.978,0.469-2.521,1.072-4.629
		c0.602-2.105,1.534-4.836,2.794-8.187c1.261-3.352,3.04-7.416,5.337-12.194c0.588-1.261,1.268-2.166,2.038-2.713
		c0.771-0.548,1.603-0.821,2.5-0.821c0.392,0,0.798,0.058,1.218,0.173c0.422,0.118,0.813,0.299,1.178,0.549
		c0.363,0.248,0.658,0.564,0.883,0.945c0.223,0.381,0.336,0.82,0.336,1.318c0,0.332-0.043,0.649-0.127,0.946
		c-0.141,0.566-0.442,1.302-0.902,2.215c-0.463,0.914-1.002,1.959-1.62,3.136c-0.615,1.178-1.267,2.448-1.953,3.809
		c-0.687,1.359-1.324,2.769-1.912,4.23c-0.588,1.461-1.093,2.946-1.512,4.455c-0.421,1.51-0.66,2.979-0.714,4.405
		c0,0.597,0.138,1.144,0.419,1.642c0.28,0.498,0.743,0.746,1.387,0.746c1.821,0,3.557-0.597,5.211-1.791
		c1.652-1.195,3.178-2.679,4.58-4.455c1.401-1.775,2.668-3.683,3.803-5.724c1.135-2.041,2.08-3.907,2.836-5.6
		c0.533-1.127,1.002-2.34,1.408-3.633c0.406-1.295,0.848-2.488,1.324-3.584c0.477-1.095,1.022-2.008,1.639-2.738
		c0.615-0.729,1.387-1.094,2.311-1.094c1.009,0,1.806,0.382,2.396,1.145c0.588,0.763,0.881,1.676,0.881,2.736
		c0,0.598-0.188,1.42-0.567,2.465c-0.378,1.045-0.855,2.24-1.429,3.584c-0.574,1.344-1.197,2.779-1.869,4.305
		c-0.672,1.527-1.297,3.078-1.869,4.654c-0.577,1.576-1.051,3.119-1.43,4.629c-0.379,1.51-0.567,2.912-0.567,4.205
		c0,1.195,0.616,1.793,1.848,1.793c0.869,0,1.947-0.299,3.236-0.897c1.289-0.597,2.641-1.435,4.055-2.513
		c0.354-0.27,0.709-0.551,1.063-0.846c0.394-1.629,0.857-3.135,1.396-4.504c0.981-2.59,1.975-5.16,2.985-7.715
		c1.007-2.554,1.931-4.894,2.773-7.019l12.732-32.104c0.504-1.294,1.184-2.206,2.038-2.738c0.855-0.53,1.716-0.796,2.585-0.796
		c0.868,0,1.659,0.282,2.373,0.846c0.715,0.565,1.073,1.477,1.073,2.738c0,0.597-0.119,1.228-0.358,1.891
		c-0.238,0.665-0.539,1.378-0.904,2.141c-0.699,1.56-1.533,3.468-2.5,5.723c-0.967,2.258-2.004,4.713-3.109,7.367
		c-1.108,2.655-2.243,5.418-3.405,8.288s-2.297,5.665-3.404,8.386c-1.105,2.723-2.143,5.301-3.109,7.74
		c-0.967,2.44-1.799,4.555-2.5,6.346c-0.309,0.764-0.61,1.652-0.903,2.664c-0.295,1.012-0.441,1.916-0.441,2.713
		c0,0.496,0.084,0.894,0.252,1.193s0.49,0.449,0.967,0.449c0.588,0,1.322-0.207,2.205-0.623c0.883-0.414,1.834-0.963,2.857-1.642
		c1.024-0.68,2.088-1.459,3.194-2.34c1.107-0.879,2.207-1.791,3.298-2.736c1.094-0.948,2.137-1.893,3.131-2.838
		c0.994-0.946,1.885-1.817,2.67-2.614c0.184-0.191,0.404-0.326,0.647-0.427c0.472-1.412,0.904-2.797,1.285-4.151
		c0.224-0.597,0.533-1.443,0.926-2.539c0.39-1.095,0.839-2.174,1.343-3.236c0.504-1.061,1.073-1.982,1.702-2.762
		c0.63-0.779,1.31-1.17,2.039-1.17c1.121,0,1.933,0.258,2.437,0.772c0.504,0.515,0.756,1.269,0.756,2.265
		c0,0.2-0.027,0.514-0.084,0.946c-0.057,0.431-0.125,0.888-0.209,1.369c-0.084,0.48-0.176,0.937-0.273,1.369
		c-0.1,0.432-0.19,0.746-0.274,0.945c1.035-1.129,2.156-2.248,3.361-3.359c1.205-1.111,2.452-2.117,3.741-3.012
		c1.289-0.896,2.605-1.625,3.951-2.191c1.344-0.563,2.689-0.845,4.033-0.845c0.924,0,1.842,0.132,2.752,0.398
		c0.91,0.265,1.725,0.656,2.437,1.169c0.715,0.516,1.297,1.163,1.745,1.942c0.447,0.779,0.671,1.683,0.671,2.713
		c0,1.361-0.341,2.812-1.029,4.355c-0.685,1.543-1.547,3.094-2.584,4.653c-1.037,1.56-2.158,3.078-3.361,4.554
		c-1.205,1.477-2.332,2.821-3.383,4.032c-1.051,1.212-1.934,2.24-2.648,3.085c-0.713,0.848-1.086,1.42-1.114,1.719
		c0,0.399,0.127,0.721,0.379,0.971c0.252,0.248,0.672,0.373,1.26,0.373c0.477,0,1.178-0.266,2.102-0.797
		c0.923-0.531,2.22-1.451,3.886-2.762c1.666-1.31,3.784-3.07,6.346-5.277c1.758-1.512,3.816-3.314,6.135-5.366l11.114-102.929
		c-1.79,0.988-3.652,1.608-4.75,1.971C163.397,107.212,156.904,108.563,148.697,109.709"/>
	<path fill="#E94A4B" d="M86.78,85.054C38.853,85.054,0,90.481,0,97.176s38.853,12.122,86.78,12.122
		c47.928,0,86.78-5.427,86.78-12.122S134.708,85.054,86.78,85.054 M111.112,103.611c-5.71,0-10.339-1.261-10.339-2.816
		s4.629-2.816,10.339-2.816c5.711,0,10.34,1.261,10.34,2.816S116.823,103.611,111.112,103.611"/>
	<path fill="#E94A4B" d="M119.435,99.801c0,1.006-3.726,1.822-8.322,1.822c-4.597,0-8.323-0.816-8.323-1.822
		c0-1.006,3.726-1.822,8.323-1.822C115.709,97.979,119.435,98.795,119.435,99.801"/>
	<path fill="#E94A4B" d="M173.58,10.034c-0.928,1.05-4.187-0.333-7.268-3.08s-5.182-5.539-4.197-6.536
		c1.034-1.046,4.361-0.116,7.442,2.632C172.639,5.797,174.495,9,173.58,10.034"/>
	<polygon fill="#E94A4B" points="173.58,10.034 162.115,0.418 115.965,48.98 102.803,99.801 119.435,99.801 130.307,55.723 	"/>
</g>
</svg>
