<?xml version="1.0" encoding="utf-8"?>
<!-- Generator: Adobe Illustrator 14.0.0, SVG Export Plug-In . SVG Version: 6.00 Build 43363)  -->
<!DOCTYPE svg PUBLIC "-//W3C//DTD SVG 1.1//EN" "http://www.w3.org/Graphics/SVG/1.1/DTD/svg11.dtd">
<svg version="1.1" id="Layer_1" xmlns="http://www.w3.org/2000/svg" xmlns:xlink="http://www.w3.org/1999/xlink" x="0px" y="0px"
	 width="421.447px" height="114.262px" viewBox="0 0 421.447 114.262" enable-background="new 0 0 421.447 114.262"
	 xml:space="preserve">
<g>
	<g>
		<defs>
			<path id="SVGID_1_" d="M22.935,13.738c-4.787,0.008-5.814,77.668-3.422,80.44c5.468,1.062,5.087,16.226,5.087,16.226l2.996,0.992
				c0,0-0.609-7.914,0.24-11.741c0.849-3.823,5.333-6.075,5.333-6.075C28.759,33.718,25.364,13.738,22.935,13.738
				C22.935,13.738,22.935,13.738,22.935,13.738"/>
		</defs>
		<clipPath id="SVGID_2_">
			<use xlink:href="#SVGID_1_"  overflow="visible"/>
		</clipPath>
		
			<linearGradient id="SVGID_3_" gradientUnits="userSpaceOnUse" x1="-135.9995" y1="592.6919" x2="-134.9995" y2="592.6919" gradientTransform="matrix(34.4394 11.6194 10.4815 -30.9067 -1520.7998 19955.1016)">
			<stop  offset="0" style="stop-color:#989775"/>
			<stop  offset="0.2308" style="stop-color:#989775"/>
			<stop  offset="0.5122" style="stop-color:#9A9876"/>
			<stop  offset="0.6342" style="stop-color:#9E9C7B"/>
			<stop  offset="0.7252" style="stop-color:#A6A484"/>
			<stop  offset="0.801" style="stop-color:#B1AE91"/>
			<stop  offset="0.8672" style="stop-color:#C1BDA4"/>
			<stop  offset="0.9268" style="stop-color:#D4D1BE"/>
			<stop  offset="0.9802" style="stop-color:#EEEBDF"/>
			<stop  offset="1" style="stop-color:#FCFAF0"/>
		</linearGradient>
		<polygon clip-path="url(#SVGID_2_)" fill="url(#SVGID_3_)" points="18.768,8.879 62.887,23.765 31.521,116.254 -12.598,101.369 		
			"/>
	</g>
	<g>
		<defs>
			<path id="SVGID_4_" d="M25.728,72.086c0,0-2.29,22.011,3.482,24.666c0,0,26.036-17.147,19.935-52.757
				C43.271,18.122,29.403,9.618,27.913,6.371C26.273,4.072,24.621,0,24.621,0L25.728,72.086z"/>
		</defs>
		<clipPath id="SVGID_5_">
			<use xlink:href="#SVGID_4_"  overflow="visible"/>
		</clipPath>
		
			<linearGradient id="SVGID_6_" gradientUnits="userSpaceOnUse" x1="-135.9995" y1="592.7583" x2="-134.9995" y2="592.7583" gradientTransform="matrix(24.1166 93.6211 100.733 -16.1502 -56403.6094 22305.2363)">
			<stop  offset="0" style="stop-color:#49A547"/>
			<stop  offset="1" style="stop-color:#3F9143"/>
		</linearGradient>
		<polygon clip-path="url(#SVGID_5_)" fill="url(#SVGID_6_)" points="53.984,-4.897 79.18,92.915 24.699,101.649 -0.497,3.837 		"/>
	</g>
	<g>
		<defs>
			<path id="SVGID_7_" d="M22.072,5.186C18.712,7.808,1.463,22.261,0.059,51.655C-1.347,81.05,23.075,97.71,23.075,97.71
				c1.709-3.914,3.484-23.112,2.858-43.847c-0.162-5.326,0.091-50.899-1.431-54.168C24.333,1.978,24.244,2.87,22.072,5.186"/>
		</defs>
		<clipPath id="SVGID_8_">
			<use xlink:href="#SVGID_7_"  overflow="visible"/>
		</clipPath>
		
			<linearGradient id="SVGID_9_" gradientUnits="userSpaceOnUse" x1="-135.9995" y1="592.7544" x2="-134.9995" y2="592.7544" gradientTransform="matrix(42.2095 -9.5904 -13.1897 -39.411 13555.4082 22109.0234)">
			<stop  offset="0" style="stop-color:#41A348"/>
			<stop  offset="0.3856" style="stop-color:#4DA84A"/>
			<stop  offset="1" style="stop-color:#68B652"/>
		</linearGradient>
		<polygon clip-path="url(#SVGID_8_)" fill="url(#SVGID_9_)" points="-31.831,6.622 24.586,-6.197 57.043,90.784 0.625,103.602 		
			"/>
	</g>
	<path fill="#C1BFBE" d="M301.744,43.056c1.397,0,6.711,0.244,9.18,0.244c4.606,0,7.813-0.244,16.449-0.244
		c7.239,0,13.327,1.95,17.686,5.686c5.266,4.55,8.062,10.886,8.062,18.603c0,10.966-5.018,17.302-10.034,20.877
		c-5.02,3.736-11.517,5.848-20.812,5.848c-4.936,0-13.408-0.162-20.482-0.242h-0.097c-0.328-0.651,0.605-3.184,1.185-3.25
		c1.912-0.217,2.43-0.29,3.318-0.656c1.492-0.614,1.846-1.375,2.012-4.056c0.245-5.036,0.164-11.047,0.164-17.871
		c0-4.874,0.081-14.378-0.083-17.384c-0.247-2.518-1.314-3.168-3.454-3.656c-1.07-0.243-2.55-0.487-4.606-0.731
		C300.065,45.737,301.333,43.543,301.744,43.056 M318.162,88.222c1.727,1.381,5.181,1.95,8.226,1.95
		c3.948,0,7.814-0.732,11.598-4.143c3.864-3.494,6.497-8.855,6.497-17.384c0-8.205-3.126-14.866-9.541-18.765
		c-3.619-2.275-8.307-3.168-13.653-3.168c-1.563,0-3.126,0.081-4.031,0.487c-0.247,0.163-0.741,0.813-0.741,1.138
		c-0.164,1.462-0.164,12.591-0.164,19.17c0,6.742,0,16.165,0.164,17.304C316.599,85.785,317.091,87.491,318.162,88.222"/>
	<path fill="#C1BFBE" d="M360.046,43.056c0.74,0,2.93,0.244,8.522,0.244c5.265,0,9.541-0.162,14.641-0.162
		c6.333,0,15.052,2.274,15.052,11.697c0,4.63-3.289,8.367-7.565,10.155c-0.247,0.081-0.247,0.243,0,0.325
		c6.087,1.542,11.433,5.279,11.433,12.428c0,6.985-4.359,11.372-10.693,14.135c-3.865,1.705-8.636,2.274-13.49,2.274
		c-3.701,0-13.619-0.407-19.132-0.324c-0.576-0.245,0.528-2.845,1.021-3.25c1.317-0.081,2.332-0.176,3.73-0.582
		c1.974-0.488,2.207-1.124,2.454-4.049c0.166-2.517,0.166-11.534,0.166-17.952c0-8.774,0.081-14.703,0-17.627
		c-0.084-2.275-0.905-3.006-2.469-3.413c-1.233-0.243-3.289-0.487-4.934-0.731C358.369,45.818,359.635,43.381,360.046,43.056
		 M393.574,79.53c0-7.148-5.264-11.209-14.889-11.209c-0.411,0-3.455-0.083-4.194,0.081c-0.247,0.08-0.492,0.242-0.492,0.405
		c0,5.118-0.084,13.323,0.163,16.571c0.165,1.382,1.152,3.331,2.386,3.9c1.317,0.731,4.276,0.894,6.333,0.894
		C388.556,90.172,393.574,87.003,393.574,79.53 M374.902,47.037c-0.328,0.081-0.74,0.895-0.74,1.3
		c-0.081,2.924-0.163,10.559-0.163,15.839c0,0.163,0.245,0.406,0.411,0.406c1.068,0.083,3.7,0.164,5.921,0.164
		c3.126,0,4.937-0.407,5.923-0.895c2.632-1.299,3.865-4.142,3.865-7.229c0-7.067-4.936-9.748-12.254-9.748
		C377.371,46.874,375.971,46.874,374.902,47.037"/>
	<path fill="#484749" d="M65.783,94.035c-0.137-0.219-0.282-0.865-0.252-1.642c0.023-0.591,0.14-0.966,0.251-1.095
		c1.551-0.245,2.286-0.41,3.157-0.643c1.455-0.361,2.003-1.146,2.088-3.006c0.239-4.382,0.253-12.597,0.166-18.375l0.001-0.17
		c0.007-0.62,0.016-1.467-0.762-2.065c-1.141-0.751-2.563-1.373-4.363-1.913c-0.689-0.204-1.07-0.566-1.049-0.989
		c0.022-0.407,0.453-0.925,1.351-1.098c2.382-0.245,8.627-1.732,11.078-2.863c0.145,0.176,0.374,0.558,0.33,1.168
		c-0.019,0.256-0.041,0.524-0.064,0.802c-0.07,0.816-0.148,1.742-0.148,2.664c0,0.272,0.295,0.529,0.607,0.529
		c0.159,0,0.306-0.062,0.425-0.18c4.671-3.655,8.848-4.959,10.998-4.959c3.534,0,6.284,1.686,8.409,5.154
		c0.124,0.183,0.292,0.28,0.479,0.28c0.178,0,0.346-0.092,0.445-0.239c4.295-3.253,8.551-5.195,11.396-5.195
		c6.734,0,10.756,5.035,10.756,13.465c0,2.423-0.025,5.494-0.046,8.361c-0.021,2.514-0.038,4.872-0.038,6.504
		c0,0.395,0.529,1.492,1.328,1.712c0.984,0.478,2.407,0.723,4.203,1.033l0.069,0.011c0.137,0.483-0.149,2.363-0.423,2.748
		c-0.445-0.004-1.063-0.036-1.832-0.075c-1.398-0.071-3.314-0.168-5.545-0.168c-4.474,0-6.812,0.088-9.045,0.232
		c-0.168-0.558-0.227-2.356-0.022-2.732c1.302-0.244,1.946-0.408,2.728-0.639c1.424-0.469,1.834-1.114,1.917-3.003
		c0.033-1.345,0.291-13.168-0.167-15.976c-0.422-2.909-2.618-6.314-7.419-6.314c-1.781,0-4.659,0.739-7.402,2.817
		c-0.171,0.165-0.269,0.486-0.269,0.697l0.005,0.054c0.323,1.516,0.323,3.283,0.323,5.957c0,1.524-0.009,3.142-0.018,4.747
		c-0.019,3.259-0.037,6.338,0.018,8.663c0,1.585,0.96,1.963,1.732,2.269c0.419,0.093,0.752,0.173,1.085,0.252
		c0.647,0.156,1.315,0.316,2.306,0.475c0.135,0.313,0.147,1.246-0.039,2.044c-0.104,0.441-0.223,0.635-0.286,0.698
		c-2.488-0.085-5.042-0.16-8.725-0.16c-1.116,0-2.94,0.049-4.548,0.091c-1.303,0.035-2.538,0.069-3.239,0.072
		c-0.102-0.161-0.244-0.675-0.244-1.416c0-0.689,0.126-1.174,0.256-1.324c0.346-0.064,0.675-0.122,0.989-0.178
		c0.864-0.154,1.61-0.285,2.326-0.461c1.22-0.372,1.677-1.049,1.766-2.597c0.238-3.615,0.424-14.029-0.088-16.637
		c-0.872-4.185-3.257-6.306-7.088-6.306c-2.247,0-5.082,1.079-7.4,2.815c-0.389,0.287-0.683,1.007-0.683,1.672
		c0,1.24-0.004,2.717-0.009,4.3c-0.015,5.231-0.034,11.741,0.093,14.558c0.079,0.866,0.38,1.897,2.015,2.277
		c0.356,0.1,0.974,0.203,1.69,0.321c0.412,0.069,0.863,0.143,1.326,0.226c0.167,0.448,0.065,2.203-0.22,2.75
		c-0.715-0.005-1.594-0.046-2.603-0.09c-1.542-0.068-3.458-0.154-5.643-0.154c-2.571,0-4.361,0.086-5.799,0.154
		C67.454,93.991,66.617,94.031,65.783,94.035"/>
	<path fill="#484749" d="M148.702,94.766c-12.358,0-16.761-9.055-16.761-17.527c0-5.918,2.423-10.546,7.204-13.753
		c3.398-2.086,7.455-3.287,11.12-3.287c9.431,0,16.019,6.773,16.019,16.472c0,6.594-2.633,11.798-7.612,15.051
		C156.284,93.186,152.141,94.766,148.702,94.766 M147.384,63.653c-1.497,0-2.895,0.392-3.935,1.104
		c-2.856,1.735-4.31,5.199-4.31,10.288c0,9.531,4.778,16.186,11.617,16.186c2.018,0,3.663-0.579,5.03-1.772
		c2.102-1.713,3.216-5.211,3.216-10.109C159.002,69.961,154.333,63.653,147.384,63.653"/>
	<path fill="#484749" d="M276.673,94.766c-12.358,0-16.762-9.054-16.762-17.526c0-5.92,2.425-10.548,7.206-13.755
		c3.396-2.086,7.454-3.286,11.118-3.286c9.432,0,16.02,6.774,16.02,16.471c0,6.596-2.633,11.8-7.612,15.051
		C284.255,93.186,280.114,94.766,276.673,94.766 M275.358,63.653c-1.499,0-2.898,0.392-3.938,1.104
		c-2.854,1.735-4.309,5.198-4.309,10.288c0,9.531,4.775,16.186,11.616,16.186c2.019,0,3.663-0.579,5.03-1.773
		c2.102-1.712,3.216-5.209,3.216-10.107C286.974,69.962,282.305,63.653,275.358,63.653"/>
	<path fill="#484749" d="M234.002,114.262c-4.436,0-7.633-0.935-10.364-3.034c-2.655-2.048-3.846-5.085-3.846-7.184
		c0-0.603,0.143-2.163,1.455-3.653c0.774-0.877,2.563-2.52,6.7-5.361c0.127-0.048,0.215-0.173,0.215-0.325
		c0-0.169-0.109-0.307-0.259-0.339c-3.409-1.303-4.438-3.443-4.747-4.603c-0.005-0.042-0.02-0.109-0.034-0.179
		c-0.098-0.456-0.189-0.886,0.427-1.328c0.478-0.341,1.244-0.794,2.057-1.273c1.197-0.707,2.556-1.508,3.308-2.152
		c0.119-0.116,0.167-0.286,0.139-0.456c-0.028-0.173-0.129-0.314-0.275-0.386c-5.045-1.694-7.585-5.437-7.585-11.137
		c0-3.68,1.698-7.006,4.659-9.127c2.029-1.602,7.122-3.528,10.422-3.528l0.191,0.002c3.396,0.081,5.309,0.79,7.956,1.77
		c1.438,0.532,2.799,0.748,4.703,0.748c2.81,0,4.037-0.89,5.09-1.911c0.061,0.126,0.204,0.528,0.269,1.452
		c0.066,0.943-0.191,2.341-0.913,3.338c-0.575,0.795-1.906,1.371-3.163,1.371c-0.126,0-0.25-0.005-0.369-0.018
		c-1.294-0.127-1.902-0.315-1.908-0.318l-0.317,0.11c-0.1,0.146-0.034,0.309,0.048,0.514c0.02,0.049,0.04,0.095,0.047,0.126
		c0.165,0.658,0.458,2.578,0.458,3.116c0,5.978-2.361,8.585-4.913,10.513c-2.436,1.835-5.281,2.939-8.489,3.277h-0.003
		c-0.065,0-0.369,0.028-0.982,0.082c-0.395,0.036-0.887,0.08-0.96,0.08l-0.071,0.01c-0.559,0.157-2.004,0.844-2.004,2.123
		c0,1.063,0.655,2.382,3.782,2.618c0.635,0.047,1.314,0.094,2.024,0.143c4.129,0.287,9.285,0.645,11.712,1.467
		c3.338,1.215,5.415,4.201,5.415,7.793c0,5.365-3.819,10.409-10.214,13.491C240.558,113.553,237.409,114.262,234.002,114.262
		 M233.51,95.415c-1.431,0-2.472,0.416-3.094,0.765c-3.015,1.93-4.413,3.858-4.413,6.078c0,2.094,0.814,3.757,2.562,5.236
		c2.116,1.792,4.972,2.664,8.728,2.664c7.386,0,10.698-3.968,10.698-7.9c0-2.736-1.375-4.57-4.203-5.607
		C241.609,95.855,237.967,95.415,233.51,95.415 M234.002,63.329c-3.809,0-6.271,3.005-6.271,7.655
		c0,4.694,2.116,10.174,8.081,10.174c1.024,0,2.882-0.455,3.802-1.468c1.386-1.272,2.291-3.9,2.291-6.676
		C241.906,66.949,238.951,63.329,234.002,63.329"/>
	<path fill="#484749" d="M213.712,91.174c-1.809-0.244-3.126-0.487-4.688-1.219c-0.247-0.162-0.577-0.893-0.577-1.137
		c-0.165-2.518-0.165-9.829-0.165-14.622c0-3.899-0.657-7.31-2.302-9.749c-1.975-2.761-4.771-4.386-8.391-4.386
		c-3.207,0-7.484,2.194-11.021,5.2c-0.083,0.081-0.626,0.596-0.614-0.204c0.012-0.799,0.136-2.425,0.21-3.449
		c0.075-1.023-0.539-1.506-0.539-1.506c-2.303,1.137-8.789,2.677-11.184,2.925c-1.751,0.336-2.192,2.017-0.328,2.598
		c0,0.003,0.018,0.006,0.027,0.009c1.951,0.587,3.266,1.213,4.246,1.86c0.741,0.569,0.658,1.381,0.658,2.031
		c0.082,5.442,0.082,13.81-0.165,18.359c-0.082,1.787-0.576,2.436-1.892,2.762l0.12-0.041c-0.987,0.243-1.811,0.407-3.043,0.569
		c-0.412,0.405-0.412,2.761-0.001,3.25c0.822,0,5.019-0.245,8.473-0.245c4.77,0,7.238,0.245,8.472,0.245
		c0.493-0.57,0.658-2.764,0.329-3.25c-1.398-0.081-2.386-0.244-3.373-0.487c-1.315-0.325-1.645-0.975-1.726-2.438
		c-0.165-3.817-0.165-11.94-0.165-17.465c0-1.543,0.411-2.274,0.905-2.681c1.644-1.462,4.358-2.437,6.744-2.437
		c2.303,0,3.865,0.731,5.018,1.705c1.562,1.3,2.138,3.169,2.303,4.55c0.329,3.087,0.246,9.26,0.246,14.621
		c0,2.925-0.246,3.656-1.315,3.981c-0.493,0.244-1.81,0.488-3.373,0.65c-0.492,0.486-0.328,2.761,0,3.25
		c2.14,0,4.607-0.245,8.226-0.245c4.524,0,7.403,0.245,8.555,0.245C213.876,93.854,214.041,91.742,213.712,91.174"/>
	<path fill="#C1BFBE" d="M415.093,93.876c-3.568,0-6.353-2.785-6.353-6.354c0-3.587,2.784-6.353,6.372-6.353
		c3.498,0,6.334,2.802,6.334,6.263C421.447,91.055,418.664,93.876,415.093,93.876 M415.113,81.74c-3.232,0-5.802,2.552-5.802,5.8
		c0,3.194,2.569,5.765,5.782,5.765c3.195,0,5.766-2.571,5.766-5.765C420.859,84.275,418.361,81.74,415.113,81.74 M416.665,91.539
		l-1.643-3.534h-1.32v3.534h-0.964v-8.032h2.375c1.766,0,2.498,0.786,2.498,2.249c0,1.177-0.555,1.927-1.589,2.142l1.695,3.641
		H416.665z M413.702,87.166h1.392c1.125,0,1.553-0.392,1.553-1.41c0-1.034-0.41-1.374-1.678-1.374h-1.267V87.166z"/>
</g>
</svg>
