<?xml version="1.0" encoding="utf-8"?>
<!-- Generator: Adobe Illustrator 14.0.0, SVG Export Plug-In . SVG Version: 6.00 Build 43363)  -->
<!DOCTYPE svg PUBLIC "-//W3C//DTD SVG 1.1//EN" "http://www.w3.org/Graphics/SVG/1.1/DTD/svg11.dtd">
<svg version="1.1" id="Layer_1" xmlns="http://www.w3.org/2000/svg" xmlns:xlink="http://www.w3.org/1999/xlink" x="0px" y="0px"
	 width="250px" height="169.786px" viewBox="0 0 250 169.786" enable-background="new 0 0 250 169.786" xml:space="preserve">
<g>
	<path fill="#5D87A1" d="M60.106,154.675h-9.646c-0.34-16.281-1.28-31.591-2.817-45.934h-0.084l-14.687,45.934h-7.345
		l-14.598-45.934h-0.086c-1.083,13.774-1.764,29.085-2.047,45.934H0c0.568-20.492,1.991-39.702,4.268-57.633h11.955l13.917,42.347
		h0.086l14.002-42.347h11.439C58.172,118.043,59.651,137.258,60.106,154.675"/>
	<path fill="#5D87A1" d="M101.942,112.155c-3.928,21.312-9.109,36.801-15.54,46.463c-5.011,7.445-10.5,11.168-16.478,11.168
		c-1.594,0-3.559-0.479-5.891-1.433v-5.138c1.139,0.165,2.476,0.256,4.013,0.256c2.788,0,5.036-0.771,6.746-2.311
		c2.047-1.875,3.072-3.98,3.072-6.315c0-1.596-0.799-4.866-2.39-9.816l-10.586-32.874h9.476l7.598,24.586
		c1.707,5.582,2.419,9.479,2.134,11.701c4.155-11.1,7.059-23.196,8.71-36.287H101.942z"/>
	<polygon fill="#F8981D" points="230.351,154.675 202.945,154.675 202.945,97.042 212.167,97.042 212.167,147.585 230.351,147.585 	
		"/>
	<path fill-rule="evenodd" clip-rule="evenodd" fill="#F8981D" d="M195.775,156.066l-10.594-5.224
		c0.942-0.774,1.839-1.608,2.649-2.575c4.497-5.287,6.748-13.114,6.748-23.476c0-19.066-7.484-28.605-22.454-28.605
		c-7.343,0-13.064,2.417-17.163,7.26c-4.499,5.293-6.745,13.09-6.745,23.394c0,10.132,1.99,17.563,5.975,22.284
		c3.644,4.268,9.136,6.403,16.481,6.403c2.742,0,5.259-0.337,7.546-1.013l13.794,8.028L195.775,156.066z M161.452,143.146
		c-2.335-3.757-3.503-9.785-3.503-18.098c0-14.514,4.413-21.774,13.233-21.774c4.612,0,7.998,1.736,10.163,5.206
		c2.332,3.759,3.5,9.735,3.5,17.932c0,14.629-4.413,21.946-13.234,21.946C167,148.358,163.614,146.624,161.452,143.146"/>
	<path fill="#F8981D" d="M144.198,138.701c0,4.888-1.796,8.899-5.376,12.04c-3.583,3.125-8.396,4.692-14.424,4.692
		c-5.636,0-11.101-1.803-16.393-5.382l2.476-4.95c4.554,2.277,8.676,3.413,12.376,3.413c3.471,0,6.187-0.771,8.153-2.299
		c1.961-1.537,3.137-3.68,3.137-6.4c0-3.423-2.387-6.348-6.765-8.8c-4.044-2.219-12.123-6.851-12.123-6.851
		c-4.378-3.192-6.572-6.62-6.572-12.265c0-4.668,1.636-8.442,4.905-11.313c3.276-2.877,7.503-4.315,12.68-4.315
		c5.35,0,10.215,1.428,14.597,4.273l-2.226,4.946c-3.749-1.589-7.447-2.387-11.092-2.387c-2.957,0-5.237,0.71-6.826,2.139
		c-1.598,1.417-2.585,3.239-2.585,5.46c0,3.413,2.438,6.375,6.939,8.875c4.095,2.22,12.371,6.941,12.371,6.941
		C141.954,129.706,144.198,133.103,144.198,138.701"/>
	<path fill-rule="evenodd" clip-rule="evenodd" fill="#5D87A1" d="M241.923,77.736c-5.574-0.14-9.89,0.417-13.511,1.95
		c-1.044,0.417-2.712,0.417-2.856,1.741c0.562,0.557,0.628,1.46,1.119,2.23c0.834,1.392,2.293,3.269,3.619,4.247
		c1.462,1.114,2.925,2.225,4.459,3.2c2.713,1.678,5.779,2.648,8.421,4.321c1.537,0.974,3.063,2.226,4.602,3.274
		c0.763,0.556,1.246,1.463,2.224,1.808v-0.211c-0.489-0.625-0.627-1.53-1.111-2.23c-0.695-0.691-1.394-1.322-2.091-2.015
		c-2.021-2.716-4.53-5.081-7.24-7.031c-2.23-1.536-7.107-3.625-8.009-6.194c0,0-0.072-0.074-0.141-0.143
		c1.531-0.141,3.346-0.699,4.807-1.122c2.363-0.625,4.522-0.484,6.96-1.109c1.115-0.28,2.229-0.63,3.349-0.973v-0.631
		c-1.26-1.251-2.16-2.925-3.484-4.107c-3.548-3.063-7.452-6.055-11.49-8.565c-2.162-1.394-4.947-2.294-7.246-3.481
		c-0.831-0.418-2.223-0.625-2.713-1.325c-1.254-1.531-1.952-3.548-2.856-5.361c-2.017-3.826-3.971-8.071-5.709-12.117
		c-1.252-2.714-2.02-5.428-3.551-7.936c-7.176-11.841-14.973-19.009-26.95-26.043c-2.577-1.465-5.641-2.091-8.911-2.857
		c-1.743-0.073-3.482-0.208-5.224-0.276c-1.115-0.49-2.231-1.814-3.205-2.44c-3.971-2.506-14.203-7.937-17.129-0.765
		c-1.88,4.529,2.786,8.984,4.388,11.283c1.183,1.6,2.717,3.413,3.548,5.221c0.488,1.184,0.627,2.439,1.117,3.691
		c1.113,3.063,2.156,6.477,3.621,9.333c0.765,1.462,1.599,2.997,2.573,4.313c0.562,0.771,1.534,1.114,1.744,2.372
		c-0.973,1.391-1.048,3.48-1.604,5.222c-2.505,7.87-1.531,17.618,2.021,23.397c1.111,1.741,3.76,5.572,7.312,4.106
		c3.133-1.251,2.437-5.22,3.342-8.7c0.208-0.841,0.068-1.394,0.485-1.95V62c0.974,1.947,1.951,3.823,2.856,5.778
		c2.161,3.409,5.918,6.961,9.056,9.327c1.666,1.258,2.99,3.413,5.079,4.182v-0.211h-0.138c-0.419-0.625-1.043-0.905-1.602-1.391
		c-1.254-1.254-2.643-2.787-3.622-4.179c-2.924-3.898-5.504-8.218-7.797-12.674c-1.117-2.164-2.089-4.529-2.996-6.687
		c-0.417-0.832-0.417-2.089-1.114-2.505c-1.048,1.53-2.575,2.855-3.341,4.729c-1.323,2.998-1.461,6.688-1.952,10.52
		c-0.277,0.073-0.139,0-0.277,0.138c-2.227-0.556-2.992-2.854-3.83-4.797c-2.089-4.951-2.44-12.889-0.627-18.599
		c0.485-1.459,2.581-6.055,1.741-7.448c-0.42-1.329-1.812-2.087-2.576-3.136c-0.904-1.323-1.885-2.991-2.505-4.456
		c-1.673-3.898-2.513-8.218-4.317-12.116c-0.837-1.813-2.301-3.694-3.481-5.362c-1.327-1.881-2.787-3.203-3.833-5.429
		c-0.346-0.768-0.834-2.022-0.279-2.855c0.138-0.558,0.42-0.768,0.978-0.909c0.901-0.765,3.48,0.208,4.384,0.626
		c2.577,1.041,4.736,2.021,6.893,3.481c0.977,0.698,2.021,2.02,3.272,2.372h1.465c2.228,0.483,4.736,0.135,6.827,0.764
		c3.688,1.183,7.029,2.924,10.025,4.804c9.119,5.781,16.642,14,21.723,23.816c0.837,1.599,1.188,3.063,1.953,4.731
		c1.463,3.419,3.274,6.901,4.733,10.24c1.462,3.273,2.858,6.612,4.949,9.333c1.042,1.46,5.222,2.226,7.102,2.993
		c1.39,0.625,3.552,1.183,4.806,1.947c2.368,1.46,4.73,3.134,6.963,4.738C238.231,74.602,241.713,76.341,241.923,77.736"/>
	<path fill-rule="evenodd" clip-rule="evenodd" fill="#5D87A1" d="M170.893,17.22c-1.181,0-2.014,0.142-2.854,0.349v0.14h0.137
		c0.562,1.112,1.537,1.882,2.229,2.857c0.561,1.114,1.048,2.224,1.604,3.339c0.069-0.068,0.136-0.14,0.136-0.14
		c0.981-0.693,1.468-1.808,1.468-3.481c-0.42-0.49-0.486-0.974-0.837-1.462C172.358,18.126,171.452,17.778,170.893,17.22"/>
	<path fill="#F8981D" d="M248.56,154.669H250v-7.062h-2.164l-1.765,4.813l-1.919-4.813h-2.088v7.062h1.362v-5.373h0.079l2.01,5.373
		h1.038l2.007-5.373V154.669z M236.933,154.669h1.527v-5.863h2.001v-1.198h-5.605v1.198h2.077V154.669z"/>
</g>
</svg>
