<?xml version="1.0" encoding="utf-8"?>
<!-- Generator: Adobe Illustrator 14.0.0, SVG Export Plug-In . SVG Version: 6.00 Build 43363)  -->
<!DOCTYPE svg PUBLIC "-//W3C//DTD SVG 1.1//EN" "http://www.w3.org/Graphics/SVG/1.1/DTD/svg11.dtd">
<svg version="1.1" id="Layer_1" xmlns="http://www.w3.org/2000/svg" xmlns:xlink="http://www.w3.org/1999/xlink" x="0px" y="0px"
	 width="511.571px" height="107.222px" viewBox="0.315 0.141 511.571 107.222" enable-background="new 0.315 0.141 511.571 107.222"
	 xml:space="preserve">
<g>
	<path fill="#009900" d="M96.174,107.15c-2.89,0-5.735-1.125-7.86-3.254L22.543,38.121v57.917c0,6.139-4.975,11.113-11.114,11.113
		c-6.135,0-11.114-4.975-11.114-11.113v-84.75c0-4.499,2.712-8.549,6.864-10.269c4.148-1.725,8.931-0.773,12.11,2.41l65.771,65.775
		V11.287c0-6.139,4.975-11.114,11.114-11.114s11.114,4.975,11.114,11.114v84.75c0,4.494-2.712,8.549-6.864,10.27
		C99.051,106.875,97.61,107.15,96.174,107.15"/>
	<path fill="#009900" d="M147.64,0.28l-3.054,5.699l-23.619,42.926l-3.054,5.419l3.054,5.415l23.619,41.539l3.192,5.694h61.824
		l3.054-6.25L230.3,65.158l7.917-16.115h-17.92l-45.149,0.138c-5.873-0.08-11.273,5.242-11.273,11.114
		c0,5.873,5.401,11.198,11.273,11.113l27.229-0.138l-6.668,13.475h-35.009l-17.369-30.563l17.506-31.674h37.24l8.682,17.817h22.37
		L215.03,6.535l-3.058-6.255H147.64"/>
	<path fill="#009900" d="M260.232,0.142c-5.824,0.071-11.052,5.433-10.976,11.252v28.962h22.228V11.394
		C271.555,5.481,266.141,0.067,260.232,0.142"/>
	<path fill="#009900" d="M295.858,107.363c-1.431,0-2.876-0.275-4.249-0.844c-4.152-1.721-6.86-5.775-6.86-10.27V11.5
		c0-6.139,4.975-11.114,11.114-11.114c6.139,0,11.113,4.975,11.113,11.114v57.917l65.771-65.776c3.17-3.174,7.944-4.135,12.11-2.41
		c4.151,1.72,6.859,5.775,6.859,10.269v84.75c0,6.14-4.975,11.113-11.114,11.113c-6.139,0-11.113-4.974-11.113-11.113V38.334
		l-65.771,65.775C301.598,106.234,298.752,107.363,295.858,107.363"/>
	<path fill="#009900" d="M474.044,53.791l34.573-34.449c4.348-4.33,4.361-11.367,0.026-15.719
		c-4.329-4.348-11.362-4.356-15.715-0.026l-34.626,34.506L423.677,3.597c-4.353-4.334-11.386-4.321-15.715,0.026
		c-4.335,4.352-4.321,11.39,0.021,15.719l34.573,34.449l-34.471,34.351c-4.353,4.335-4.361,11.367-0.026,15.715
		c2.169,2.183,5.019,3.272,7.873,3.272c2.836,0,5.672-1.081,7.842-3.246l34.528-34.404l34.524,34.404
		c2.174,2.165,5.005,3.246,7.846,3.246c2.854,0,5.699-1.09,7.873-3.272c4.33-4.348,4.321-11.38-0.026-15.715L474.044,53.791"/>
	<path fill="#009900" d="M260.232,107.049c-5.824-0.072-11.052-5.434-10.976-11.252V49.274h22.228v46.522
		C271.555,101.705,266.141,107.119,260.232,107.049"/>
</g>
</svg>
