<?xml version="1.0" encoding="utf-8"?>
<!-- Generator: Adobe Illustrator 14.0.0, SVG Export Plug-In . SVG Version: 6.00 Build 43363)  -->
<!DOCTYPE svg PUBLIC "-//W3C//DTD SVG 1.1//EN" "http://www.w3.org/Graphics/SVG/1.1/DTD/svg11.dtd">
<svg version="1.1" id="Layer_1" xmlns="http://www.w3.org/2000/svg" xmlns:xlink="http://www.w3.org/1999/xlink" x="0px" y="0px"
	 width="442.371px" height="270.928px" viewBox="0 0 442.371 270.928" enable-background="new 0 0 442.371 270.928"
	 xml:space="preserve">
<g>
	<path fill="#699F63" d="M218.647,270.928c-1.46,0-2.912-0.381-4.19-1.121l-13.338-7.892c-1.991-1.114-1.019-1.509-0.362-1.738
		c2.657-0.922,3.195-1.135,6.031-2.743c0.295-0.167,0.687-0.103,0.992,0.076l10.247,6.083c0.371,0.206,0.895,0.206,1.237,0
		l39.95-23.058c0.372-0.212,0.609-0.641,0.609-1.081V193.35c0-0.451-0.237-0.872-0.62-1.101l-39.933-23.038
		c-0.369-0.216-0.859-0.216-1.231,0l-39.923,23.045c-0.388,0.222-0.634,0.657-0.634,1.094v46.104c0,0.44,0.246,0.858,0.63,1.067
		l10.944,6.323c5.938,2.969,9.574-0.528,9.574-4.041v-45.519c0-0.645,0.517-1.151,1.161-1.151h5.065
		c0.634,0,1.158,0.507,1.158,1.151v45.519c0,7.925-4.316,12.47-11.829,12.47c-2.309,0-4.127,0-9.202-2.501l-10.476-6.03
		c-2.588-1.496-4.19-4.293-4.19-7.288V193.35c0-2.995,1.602-5.792,4.19-7.281l39.949-23.085c2.528-1.429,5.888-1.429,8.396,0
		l39.947,23.085c2.587,1.496,4.195,4.286,4.195,7.281v46.104c0,2.995-1.608,5.781-4.195,7.288l-39.947,23.064
		C221.577,270.547,220.127,270.928,218.647,270.928"/>
	<path fill="#699F63" d="M230.987,239.165c-17.481,0-21.144-8.024-21.144-14.755c0-0.641,0.514-1.151,1.154-1.151h5.165
		c0.577,0,1.058,0.415,1.148,0.979c0.78,5.258,3.105,7.912,13.677,7.912c8.416,0,11.999-1.904,11.999-6.369
		c0-2.574-1.016-4.485-14.095-5.767c-10.931-1.081-17.692-3.496-17.692-12.239c0-8.062,6.794-12.868,18.186-12.868
		c12.798,0,19.131,4.441,19.933,13.972c0.03,0.329-0.086,0.645-0.305,0.889c-0.219,0.229-0.524,0.369-0.846,0.369h-5.186
		c-0.537,0-1.012-0.382-1.121-0.902c-1.243-5.533-4.269-7.302-12.476-7.302c-9.189,0-10.257,3.201-10.257,5.601
		c0,2.906,1.26,3.751,13.667,5.393c12.276,1.623,18.108,3.921,18.108,12.55C250.904,234.179,243.646,239.165,230.987,239.165"/>
	<path fill="#699F63" d="M288.593,190.814c0,4.236-3.464,7.699-7.698,7.699c-4.197,0-7.7-3.422-7.7-7.699
		c0-4.359,3.586-7.701,7.7-7.701C285.05,183.113,288.593,186.455,288.593,190.814 M274.438,190.793c0,3.586,2.893,6.479,6.436,6.479
		c3.586,0,6.479-2.954,6.479-6.479c0-3.585-2.933-6.437-6.479-6.437C277.371,184.356,274.438,187.167,274.438,190.793
		 M278.001,186.494h2.976c1.019,0,3.016,0,3.016,2.283c0,1.589-1.019,1.914-1.632,2.118c1.184,0.081,1.264,0.856,1.426,1.955
		c0.083,0.692,0.206,1.875,0.448,2.281h-1.831c-0.043-0.406-0.329-2.607-0.329-2.729c-0.119-0.49-0.285-0.732-0.896-0.732h-1.506
		v3.461h-1.672V186.494z M279.633,190.283h1.344c1.098,0,1.304-0.772,1.304-1.221c0-1.183-0.816-1.183-1.264-1.183h-1.384V190.283z"
		/>
	<path fill-rule="evenodd" clip-rule="evenodd" fill="#333333" d="M94.937,90.55c0-1.841-0.969-3.533-2.558-4.445L50.024,61.73
		c-0.716-0.422-1.519-0.641-2.331-0.674h-0.438c-0.81,0.033-1.612,0.252-2.339,0.674L2.561,86.105C0.982,87.018,0,88.709,0,90.55
		l0.093,65.635c0,0.913,0.474,1.762,1.277,2.21c0.786,0.471,1.758,0.471,2.541,0l25.172-14.414c1.592-0.945,2.561-2.614,2.561-4.438
		v-30.665c0-1.828,0.968-3.52,2.554-4.429l10.718-6.173c0.799-0.461,1.672-0.687,2.564-0.687c0.873,0,1.768,0.226,2.544,0.687
		l10.715,6.173c1.586,0.909,2.558,2.601,2.558,4.429v30.665c0,1.824,0.982,3.504,2.564,4.438l25.165,14.414
		c0.789,0.471,1.775,0.471,2.557,0c0.78-0.448,1.271-1.297,1.271-2.21L94.937,90.55z"/>
	<path fill-rule="evenodd" clip-rule="evenodd" fill="#333333" d="M298.734,0.324c-0.793-0.44-1.76-0.431-2.543,0.029
		c-0.78,0.459-1.262,1.299-1.262,2.206v65c0,0.639-0.342,1.231-0.894,1.551c-0.555,0.32-1.237,0.32-1.791,0l-10.609-6.112
		c-1.582-0.913-3.529-0.911-5.112,0.001l-42.371,24.453c-1.584,0.914-2.559,2.603-2.559,4.431v48.917
		c0,1.828,0.975,3.516,2.557,4.432l42.37,24.471c1.584,0.914,3.534,0.914,5.118,0l42.377-24.471
		c1.582-0.916,2.558-2.604,2.558-4.432V18.862c0-1.854-1.004-3.564-2.624-4.468L298.734,0.324z M294.804,124.727
		c0,0.456-0.244,0.879-0.64,1.106l-14.549,8.386c-0.395,0.227-0.882,0.227-1.276,0l-14.548-8.386
		c-0.397-0.227-0.641-0.65-0.641-1.106v-16.799c0-0.456,0.243-0.879,0.64-1.108l14.547-8.402c0.396-0.229,0.884-0.229,1.28,0
		l14.548,8.402c0.395,0.229,0.639,0.652,0.639,1.108V124.727z"/>
	<path fill-rule="evenodd" clip-rule="evenodd" fill="#333333" d="M439.825,107.488c1.576-0.915,2.546-2.601,2.546-4.424V91.21
		c0-1.823-0.97-3.51-2.548-4.425l-42.099-24.443c-1.584-0.921-3.539-0.922-5.127-0.007l-42.356,24.453
		c-1.583,0.914-2.558,2.602-2.558,4.43v48.903c0,1.841,0.986,3.537,2.584,4.446l42.093,23.985c1.552,0.886,3.455,0.896,5.017,0.027
		l25.46-14.15c0.809-0.45,1.312-1.297,1.316-2.22c0.006-0.923-0.485-1.776-1.284-2.235l-42.625-24.465
		c-0.796-0.456-1.286-1.304-1.286-2.219v-15.326c0-0.914,0.488-1.76,1.281-2.216l13.266-7.648c0.789-0.456,1.765-0.456,2.555,0
		l13.271,7.648c0.793,0.456,1.28,1.302,1.28,2.216v12.058c0,0.916,0.49,1.762,1.283,2.218c0.793,0.458,1.77,0.454,2.561-0.005
		L439.825,107.488z"/>
	<path fill-rule="evenodd" clip-rule="evenodd" fill="#699F63" d="M394.536,105.198c0.305-0.176,0.679-0.176,0.982,0l8.13,4.69
		c0.304,0.176,0.491,0.5,0.491,0.851v9.388c0,0.352-0.188,0.675-0.491,0.851l-8.13,4.691c-0.304,0.176-0.678,0.176-0.982,0
		l-8.124-4.691c-0.304-0.176-0.49-0.499-0.49-0.851v-9.388c0-0.351,0.187-0.675,0.49-0.851L394.536,105.198z"/>
	<g>
		<defs>
			<path id="SVGID_1_" d="M160.727,62.59l-42.134,24.315c-1.576,0.909-2.545,2.588-2.545,4.407v48.666
				c0,1.817,0.969,3.497,2.544,4.408l42.133,24.334c1.576,0.909,3.516,0.909,5.091,0l42.124-24.334
				c1.574-0.911,2.543-2.591,2.543-4.408V91.311c0-1.817-0.969-3.496-2.545-4.405L165.814,62.59
				c-0.787-0.454-1.666-0.682-2.544-0.682C162.391,61.908,161.513,62.136,160.727,62.59"/>
		</defs>
		<clipPath id="SVGID_2_">
			<use xlink:href="#SVGID_1_"  overflow="visible"/>
		</clipPath>
		
			<linearGradient id="SVGID_3_" gradientUnits="userSpaceOnUse" x1="-78.3057" y1="435.9834" x2="-77.3057" y2="435.9834" gradientTransform="matrix(-38.0649 77.6524 77.6524 38.0649 -36655.4492 -10434.3643)">
			<stop  offset="0" style="stop-color:#41873F"/>
			<stop  offset="0.3288" style="stop-color:#418B3D"/>
			<stop  offset="0.6352" style="stop-color:#419637"/>
			<stop  offset="0.9319" style="stop-color:#3FA92D"/>
			<stop  offset="1" style="stop-color:#3FAE2A"/>
		</linearGradient>
		<polygon clip-path="url(#SVGID_2_)" fill="url(#SVGID_3_)" points="253.057,82.778 192.187,206.952 73.473,148.76 134.343,24.585 
					"/>
	</g>
	<g>
		<defs>
			<path id="SVGID_4_" d="M117.094,143.069c0.401,0.525,0.906,0.975,1.497,1.317l36.143,20.874l6.017,3.46
				c0.9,0.519,1.927,0.738,2.936,0.665c0.337-0.028,0.673-0.09,1.001-0.186l44.43-81.357c-0.34-0.365-0.736-0.682-1.181-0.938
				L180.349,70.98l-14.579-8.39c-0.417-0.24-0.864-0.413-1.323-0.526L117.094,143.069z"/>
		</defs>
		<clipPath id="SVGID_5_">
			<use xlink:href="#SVGID_4_"  overflow="visible"/>
		</clipPath>
		
			<linearGradient id="SVGID_6_" gradientUnits="userSpaceOnUse" x1="-78.3057" y1="435.9893" x2="-77.3057" y2="435.9893" gradientTransform="matrix(106.8073 -78.9149 -78.9149 -106.8073 42926.0508 40508.0625)">
			<stop  offset="0" style="stop-color:#41873F"/>
			<stop  offset="0.1376" style="stop-color:#41873F"/>
			<stop  offset="0.4032" style="stop-color:#54A044"/>
			<stop  offset="0.7136" style="stop-color:#66B848"/>
			<stop  offset="0.9081" style="stop-color:#6CC04A"/>
			<stop  offset="1" style="stop-color:#6CC04A"/>
		</linearGradient>
		<polygon clip-path="url(#SVGID_5_)" fill="url(#SVGID_6_)" points="65.766,99.989 176.622,18.082 260.447,131.535 
			149.591,213.441 		"/>
	</g>
	<g>
		<defs>
			<path id="SVGID_7_" d="M160.727,62.59l-42.134,24.315c-1.575,0.909-2.545,2.588-2.545,4.407v48.666
				c0,1.817,0.97,3.497,2.544,4.408l42.133,24.334c1.576,0.909,3.516,0.909,5.091,0l42.124-24.334
				c1.574-0.911,2.543-2.591,2.543-4.408V91.311c0-1.817-0.969-3.496-2.545-4.405L165.814,62.59
				c-0.787-0.454-1.666-0.682-2.544-0.682C162.391,61.908,161.513,62.136,160.727,62.59"/>
		</defs>
		<clipPath id="SVGID_8_">
			<use xlink:href="#SVGID_7_"  overflow="visible"/>
		</clipPath>
		<g clip-path="url(#SVGID_8_)">
			<defs>
				<polygon id="SVGID_9_" points="159.321,53.652 158.741,53.983 159.515,53.983 				"/>
			</defs>
			<clipPath id="SVGID_10_">
				<use xlink:href="#SVGID_9_"  overflow="visible"/>
			</clipPath>
			
				<linearGradient id="SVGID_11_" gradientUnits="userSpaceOnUse" x1="-78.3057" y1="435.9834" x2="-77.3057" y2="435.9834" gradientTransform="matrix(97.417 0 0 -97.417 7742.8716 42525.9883)">
				<stop  offset="0" style="stop-color:#6CC04A"/>
				<stop  offset="0.0919" style="stop-color:#6CC04A"/>
				<stop  offset="0.2864" style="stop-color:#66B848"/>
				<stop  offset="0.5968" style="stop-color:#54A044"/>
				<stop  offset="0.8624" style="stop-color:#41873F"/>
				<stop  offset="1" style="stop-color:#41873F"/>
			</linearGradient>
			<rect x="158.741" y="53.652" clip-path="url(#SVGID_10_)" fill="url(#SVGID_11_)" width="0.774" height="0.331"/>
		</g>
	</g>
	<g>
		<defs>
			<path id="SVGID_12_" d="M162.759,61.936c-0.705,0.07-1.398,0.289-2.033,0.655l-42.014,24.245l45.293,82.513
				c0.628-0.091,1.243-0.301,1.81-0.628l42.124-24.334c1.301-0.753,2.189-2.031,2.458-3.478l-46.178-78.89
				c-0.341-0.068-0.688-0.102-1.035-0.102C163.042,61.917,162.9,61.923,162.759,61.936"/>
		</defs>
		<clipPath id="SVGID_13_">
			<use xlink:href="#SVGID_12_"  overflow="visible"/>
		</clipPath>
		
			<linearGradient id="SVGID_14_" gradientUnits="userSpaceOnUse" x1="-78.3057" y1="435.9834" x2="-77.3057" y2="435.9834" gradientTransform="matrix(97.417 0 0 -97.417 7742.8716 42587.8008)">
			<stop  offset="0" style="stop-color:#6CC04A"/>
			<stop  offset="0.0919" style="stop-color:#6CC04A"/>
			<stop  offset="0.2864" style="stop-color:#66B848"/>
			<stop  offset="0.5968" style="stop-color:#54A044"/>
			<stop  offset="0.8624" style="stop-color:#41873F"/>
			<stop  offset="1" style="stop-color:#41873F"/>
		</linearGradient>
		<rect x="118.712" y="61.917" clip-path="url(#SVGID_13_)" fill="url(#SVGID_14_)" width="91.685" height="107.431"/>
	</g>
	<g>
		<defs>
			<path id="SVGID_15_" d="M160.727,62.59l-42.134,24.315c-1.575,0.909-2.545,2.588-2.545,4.407v48.666
				c0,1.817,0.97,3.497,2.544,4.408l42.133,24.334c1.576,0.909,3.516,0.909,5.091,0l42.124-24.334
				c1.574-0.911,2.543-2.591,2.543-4.408V91.311c0-1.817-0.969-3.496-2.545-4.405L165.814,62.59
				c-0.787-0.454-1.666-0.682-2.544-0.682C162.391,61.908,161.513,62.136,160.727,62.59"/>
		</defs>
		<clipPath id="SVGID_16_">
			<use xlink:href="#SVGID_15_"  overflow="visible"/>
		</clipPath>
		<g clip-path="url(#SVGID_16_)">
			<defs>
				<polygon id="SVGID_17_" points="211.973,143.604 211.694,143.126 211.694,143.766 				"/>
			</defs>
			<clipPath id="SVGID_18_">
				<use xlink:href="#SVGID_17_"  overflow="visible"/>
			</clipPath>
			
				<linearGradient id="SVGID_19_" gradientUnits="userSpaceOnUse" x1="-78.3057" y1="435.9834" x2="-77.3057" y2="435.9834" gradientTransform="matrix(97.417 0 0 -97.417 7742.8716 42615.6133)">
				<stop  offset="0" style="stop-color:#6CC04A"/>
				<stop  offset="0.0919" style="stop-color:#6CC04A"/>
				<stop  offset="0.2864" style="stop-color:#66B848"/>
				<stop  offset="0.5968" style="stop-color:#54A044"/>
				<stop  offset="0.8624" style="stop-color:#41873F"/>
				<stop  offset="1" style="stop-color:#41873F"/>
			</linearGradient>
			<rect x="211.694" y="143.126" clip-path="url(#SVGID_18_)" fill="url(#SVGID_19_)" width="0.279" height="0.64"/>
		</g>
	</g>
	<g>
		<defs>
			<path id="SVGID_20_" d="M160.727,62.59l-42.134,24.315c-1.575,0.909-2.545,2.588-2.545,4.407v48.666
				c0,1.817,0.97,3.497,2.544,4.408l42.133,24.334c1.576,0.909,3.516,0.909,5.091,0l42.124-24.334
				c1.574-0.911,2.543-2.591,2.543-4.408V91.311c0-1.817-0.969-3.496-2.545-4.405L165.814,62.59
				c-0.787-0.454-1.666-0.682-2.544-0.682C162.391,61.908,161.513,62.136,160.727,62.59"/>
		</defs>
		<clipPath id="SVGID_21_">
			<use xlink:href="#SVGID_20_"  overflow="visible"/>
		</clipPath>
		<g clip-path="url(#SVGID_21_)">
			<defs>
				<path id="SVGID_22_" d="M208.045,144.387l-42.177,24.333c-0.58,0.335-1.213,0.545-1.861,0.633l0.84,1.53l46.847-27.117v-0.64
					l-1.158-1.979C210.189,142.495,209.273,143.676,208.045,144.387"/>
			</defs>
			<clipPath id="SVGID_23_">
				<use xlink:href="#SVGID_22_"  overflow="visible"/>
			</clipPath>
			
				<linearGradient id="SVGID_24_" gradientUnits="userSpaceOnUse" x1="-78.3057" y1="435.9834" x2="-77.3057" y2="435.9834" gradientTransform="matrix(97.417 0 0 -97.417 7742.8716 42628.2383)">
				<stop  offset="0" style="stop-color:#6CC04A"/>
				<stop  offset="0.0919" style="stop-color:#6CC04A"/>
				<stop  offset="0.2864" style="stop-color:#66B848"/>
				<stop  offset="0.5968" style="stop-color:#54A044"/>
				<stop  offset="0.8624" style="stop-color:#41873F"/>
				<stop  offset="1" style="stop-color:#41873F"/>
			</linearGradient>
			<rect x="164.007" y="141.147" clip-path="url(#SVGID_23_)" fill="url(#SVGID_24_)" width="47.687" height="29.735"/>
		</g>
	</g>
	<g>
		<defs>
			<path id="SVGID_25_" d="M160.727,62.59l-42.134,24.315c-1.575,0.909-2.545,2.588-2.545,4.407v48.666
				c0,1.817,0.97,3.497,2.544,4.408l42.133,24.334c1.576,0.909,3.516,0.909,5.091,0l42.124-24.334
				c1.574-0.911,2.543-2.591,2.543-4.408V91.311c0-1.817-0.969-3.496-2.545-4.405L165.814,62.59
				c-0.787-0.454-1.666-0.682-2.544-0.682C162.391,61.908,161.513,62.136,160.727,62.59"/>
		</defs>
		<clipPath id="SVGID_26_">
			<use xlink:href="#SVGID_25_"  overflow="visible"/>
		</clipPath>
		<g clip-path="url(#SVGID_26_)">
			<defs>
				<path id="SVGID_27_" d="M208.045,144.387l-42.177,24.333c-0.58,0.335-1.213,0.545-1.861,0.633l0.84,1.53l46.847-27.117v-0.64
					l-1.158-1.979C210.189,142.495,209.273,143.676,208.045,144.387"/>
			</defs>
			<clipPath id="SVGID_28_">
				<use xlink:href="#SVGID_27_"  overflow="visible"/>
			</clipPath>
			
				<linearGradient id="SVGID_29_" gradientUnits="userSpaceOnUse" x1="-78.3057" y1="435.9814" x2="-77.3057" y2="435.9814" gradientTransform="matrix(-60.0806 122.5644 122.5644 60.0806 -57914.5156 -16518.2969)">
				<stop  offset="0" style="stop-color:#41873F"/>
				<stop  offset="0.3288" style="stop-color:#418B3D"/>
				<stop  offset="0.6352" style="stop-color:#419637"/>
				<stop  offset="0.9319" style="stop-color:#3FA92D"/>
				<stop  offset="1" style="stop-color:#3FAE2A"/>
			</linearGradient>
			<polygon clip-path="url(#SVGID_28_)" fill="url(#SVGID_29_)" points="223.446,146.908 202.456,189.729 152.255,165.122 
				173.246,122.3 			"/>
		</g>
	</g>
</g>
</svg>
