<?xml version="1.0" encoding="utf-8"?>
<!-- Generator: Adobe Illustrator 14.0.0, SVG Export Plug-In . SVG Version: 6.00 Build 43363)  -->
<!DOCTYPE svg PUBLIC "-//W3C//DTD SVG 1.1//EN" "http://www.w3.org/Graphics/SVG/1.1/DTD/svg11.dtd">
<svg version="1.1" id="Layer_1" xmlns="http://www.w3.org/2000/svg" xmlns:xlink="http://www.w3.org/1999/xlink" x="0px" y="0px"
	 width="140px" height="73.645px" viewBox="0 0 140 73.645" enable-background="new 0 0 140 73.645" xml:space="preserve">
<g>
	
		<radialGradient id="SVGID_1_" cx="15.5088" cy="22.2529" r="91.9192" gradientTransform="matrix(1 0 0 1 26.52 -9.3066)" gradientUnits="userSpaceOnUse">
		<stop  offset="0" style="stop-color:#FFFFFF"/>
		<stop  offset="0.5" style="stop-color:#4C6B97"/>
		<stop  offset="1" style="stop-color:#000000"/>
	</radialGradient>
	<ellipse fill="url(#SVGID_1_)" cx="70" cy="36.823" rx="70" ry="36.823"/>
	<ellipse fill="#6181B6" cx="70" cy="36.823" rx="67.266" ry="34.089"/>
	<g>
		<path fill="#FFFFFF" d="M83.626,47.84l3.337-17.172c0.753-3.876,0.127-6.767-1.861-8.594c-1.925-1.768-5.192-2.627-9.99-2.627
			h-5.778l1.654-8.509c0.062-0.32-0.022-0.652-0.23-0.904s-0.517-0.398-0.844-0.398h-7.976c-0.523,0-0.974,0.371-1.074,0.885
			l-3.543,18.23c-0.323-2.051-1.116-3.815-2.387-5.27c-2.339-2.678-6.04-4.035-10.999-4.035H28.478
			c-0.523,0-0.974,0.371-1.074,0.885l-7.172,36.901c-0.062,0.321,0.021,0.652,0.229,0.904c0.208,0.252,0.517,0.398,0.844,0.398
			h8.039c0.524,0,0.974-0.371,1.074-0.885l1.735-8.927h5.984c3.14,0,5.777-0.34,7.837-1.011c2.106-0.685,4.044-1.846,5.752-3.445
			c1.38-1.268,2.521-2.688,3.399-4.22l-1.433,7.374c-0.062,0.32,0.022,0.652,0.229,0.904c0.208,0.252,0.518,0.397,0.844,0.397h7.975
			c0.523,0,0.974-0.371,1.074-0.885l3.936-20.255h5.472c2.332,0,3.015,0.464,3.2,0.664c0.169,0.182,0.52,0.824,0.127,2.847
			l-3.173,16.327c-0.062,0.32,0.021,0.652,0.229,0.904s0.518,0.397,0.844,0.397h8.103C83.076,48.725,83.526,48.354,83.626,47.84z
			 M46.652,33.652c-0.501,2.574-1.445,4.41-2.806,5.458c-1.383,1.065-3.595,1.605-6.574,1.605h-3.562l2.576-13.257h4.606
			c3.384,0,4.748,0.724,5.295,1.33C46.945,29.629,47.106,31.312,46.652,33.652z"/>
		<path fill="#FFFFFF" d="M117.731,23.483c-2.34-2.678-6.04-4.035-10.998-4.035H91.275c-0.524,0-0.975,0.371-1.074,0.885
			l-7.172,36.901c-0.062,0.321,0.021,0.652,0.229,0.904s0.518,0.398,0.844,0.398h8.039c0.523,0,0.974-0.371,1.073-0.885l1.734-8.927
			h5.984c3.141,0,5.777-0.34,7.838-1.011c2.105-0.685,4.044-1.846,5.752-3.445c1.425-1.31,2.598-2.779,3.486-4.369
			c0.887-1.587,1.524-3.359,1.896-5.266C120.819,29.932,120.088,26.181,117.731,23.483z M109.395,33.652
			c-0.501,2.574-1.445,4.41-2.806,5.458c-1.383,1.065-3.595,1.605-6.574,1.605h-3.563l2.577-13.257h4.605
			c3.384,0,4.747,0.724,5.295,1.33C109.688,29.629,109.849,31.312,109.395,33.652z"/>
	</g>
	<g>
		<path d="M40.891,26.365c3.054,0,5.089,0.563,6.107,1.691c1.017,1.127,1.259,3.063,0.727,5.805
			c-0.556,2.856-1.625,4.895-3.212,6.116s-4,1.832-7.242,1.832h-4.89l3.002-15.444H40.891z M21.305,57.443h8.039l1.907-9.811h6.886
			c3.038,0,5.537-0.318,7.5-0.958c1.962-0.638,3.745-1.708,5.35-3.21c1.347-1.238,2.437-2.604,3.272-4.098
			c0.833-1.492,1.426-3.14,1.776-4.942c0.851-4.375,0.209-7.781-1.923-10.222s-5.524-3.661-10.175-3.661H28.478L21.305,57.443z"/>
		<path d="M61.938,10.73h7.976l-1.907,9.811h7.105c4.47,0,7.554,0.78,9.251,2.339c1.697,1.56,2.205,4.086,1.526,7.58l-3.336,17.172
			H74.45l3.173-16.328c0.361-1.857,0.229-3.125-0.398-3.8c-0.627-0.676-1.961-1.014-4.002-1.014h-6.374l-4.108,21.141h-7.975
			L61.938,10.73z"/>
		<path d="M103.634,26.365c3.054,0,5.09,0.563,6.107,1.691c1.017,1.127,1.259,3.063,0.727,5.805
			c-0.556,2.856-1.626,4.895-3.212,6.116c-1.587,1.222-4.001,1.832-7.241,1.832h-4.89l3.001-15.444H103.634z M84.048,57.443h8.039
			l1.906-9.811h6.886c3.038,0,5.537-0.318,7.499-0.958c1.962-0.638,3.745-1.708,5.351-3.21c1.347-1.238,2.437-2.604,3.271-4.098
			c0.834-1.492,1.427-3.14,1.776-4.942c0.851-4.375,0.209-7.781-1.924-10.222c-2.132-2.441-5.524-3.661-10.175-3.661H91.22
			L84.048,57.443z"/>
	</g>
</g>
</svg>
