<?xml version="1.0" encoding="utf-8"?>
<!-- Generator: Adobe Illustrator 14.0.0, SVG Export Plug-In . SVG Version: 6.00 Build 43363)  -->
<!DOCTYPE svg PUBLIC "-//W3C//DTD SVG 1.1//EN" "http://www.w3.org/Graphics/SVG/1.1/DTD/svg11.dtd">
<svg version="1.1" id="Layer_2" xmlns="http://www.w3.org/2000/svg" xmlns:xlink="http://www.w3.org/1999/xlink" x="0px" y="0px"
	 width="561.802px" height="499.803px" viewBox="18.628 50.198 561.802 499.803"
	 enable-background="new 18.628 50.198 561.802 499.803" xml:space="preserve">
<g>
	<circle fill="#00D8FF" cx="299.529" cy="299.628" r="50.167"/>
	<path fill="#00D8FF" d="M551.538,249.634c-17.357-14.483-41.907-27.431-70.996-37.445c-5.833-2.008-11.873-3.906-18.087-5.7
		c1.025-4.176,1.964-8.293,2.796-12.334c13.938-67.659,4.042-120.389-25.825-137.613c-7.3-4.209-15.934-6.344-25.662-6.344
		c-28.025,0-63.534,17.47-99.985,49.192c-4.659,4.055-9.326,8.344-13.99,12.837c-3.112-2.979-6.216-5.854-9.307-8.599
		C252.63,70.019,214.103,50.743,184.78,50.743c-10.042,0-18.931,2.198-26.419,6.533c-14.656,8.484-24.612,25.792-28.792,50.053
		c-3.838,22.277-2.744,50.011,3.163,80.203c1.19,6.084,2.582,12.293,4.152,18.602c-7.177,2.042-14.123,4.223-20.792,6.548
		c-61.029,21.277-97.464,53.781-97.464,86.947c0,17.323,10.152,35.174,29.358,51.622c18.07,15.475,43.442,29.062,73.372,39.293
		c4.885,1.67,9.954,3.251,15.18,4.752c-1.688,6.814-3.158,13.506-4.401,20.053c-12.056,63.496-2.102,111.297,26.629,127.867
		c7.566,4.363,16.589,6.575,26.82,6.575c29.162,0,66.798-18.278,103.257-50.148c3.893-3.403,7.801-7.011,11.719-10.793
		c5.066,4.871,10.135,9.492,15.191,13.844c35.451,30.508,70.188,47.309,97.813,47.309c9.955,0,18.792-2.193,26.265-6.52
		c14.993-8.68,25.355-26.408,29.968-51.271c4.34-23.392,3.387-52.156-2.755-83.185c-0.971-4.905-2.1-9.917-3.367-15.02
		c3.559-1.052,7.048-2.136,10.444-3.261c65.573-21.726,106.309-56.641,106.309-91.118
		C580.43,282.693,570.439,265.405,551.538,249.634z M413.764,74.198c5.466,0,10.065,1.055,13.672,3.135
		c16.091,9.279,27.432,48.278,14.31,111.979c-0.754,3.658-1.603,7.386-2.525,11.167c-23.363-5.391-48.688-9.386-75.138-11.866
		c-15.471-22.015-31.485-42.01-47.479-59.261c4.313-4.147,8.627-8.111,12.932-11.857C360.687,90.383,392.175,74.198,413.764,74.198z
		 M377.927,345.339c-8.833,15.317-17.828,29.834-26.914,43.476c-16.682,1.196-33.918,1.813-51.484,1.813
		c-17.574,0-34.542-0.533-50.807-1.576c-9.596-13.982-18.836-28.589-27.516-43.581c-8.683-15-16.692-30.144-23.959-45.226
		c7.287-15.205,15.282-30.411,23.884-45.328c8.657-15.011,17.775-29.51,27.211-43.336c16.808-1.283,33.971-1.953,51.187-1.953
		c17.366,0,34.517,0.658,51.242,1.931c9.294,13.714,18.368,28.179,27.08,43.228c8.861,15.306,16.946,30.351,24.229,45.039
		C394.781,314.877,386.704,330.119,377.927,345.339z M415.034,327.505c7.546,17.181,13.862,33.731,18.87,49.466
		c-16.275,3.712-33.868,6.707-52.416,8.936c5.804-9.205,11.554-18.735,17.229-28.577C404.45,347.39,409.892,337.43,415.034,327.505z
		 M300.502,454.438c-11.371-12.288-22.719-25.877-33.775-40.436c10.695,0.414,21.636,0.625,32.802,0.625
		c11.468,0,22.809-0.261,33.971-0.764C322.528,428.785,311.49,442.36,300.502,454.438z M218.087,386.388
		c-18.458-2.052-35.777-4.838-51.768-8.332c4.978-16.027,11.102-32.688,18.215-49.581c5.027,9.705,10.33,19.396,15.901,29.021
		C206.142,367.352,212.04,376.993,218.087,386.388z M184.468,271.979c-6.969-16.524-12.947-32.808-17.837-48.579
		c16.039-3.577,33.141-6.505,50.902-8.729c-5.895,9.198-11.639,18.627-17.192,28.255
		C194.778,252.571,189.485,262.272,184.468,271.979z M299.789,146.502c11.059,11.984,22.147,25.377,33.061,39.916
		c-10.996-0.52-22.119-0.79-33.321-0.79c-11.127,0-22.169,0.26-33.08,0.763C277.336,172.033,288.514,158.662,299.789,146.502z
		 M398.621,242.762c-5.562-9.607-11.274-18.987-17.101-28.111c17.889,2.259,35.065,5.264,51.241,8.96
		c-4.84,15.5-10.874,31.724-17.979,48.365C409.704,262.345,404.316,252.6,398.621,242.762z M156.286,182.923
		c-5.353-27.357-6.413-52.088-3.065-71.52c2.891-16.776,8.986-28.622,17.165-33.357c3.787-2.192,8.63-3.304,14.395-3.304
		c23.183,0,56.74,17.507,89.766,46.832c2.798,2.484,5.609,5.086,8.428,7.779c-16.348,17.555-32.467,37.508-47.834,59.193
		c-26.419,2.433-51.686,6.358-75.001,11.657C158.683,194.342,157.391,188.573,156.286,182.923z M129.12,367.833
		c-59.426-20.312-86.492-49.595-86.492-68.205c0-17.878,25.159-44.688,81.366-64.285c6.162-2.148,12.625-4.172,19.34-6.074
		c7.04,22.9,16.265,46.796,27.362,70.907c-11.285,24.525-20.633,48.788-27.736,71.999C138.194,370.8,133.573,369.355,129.12,367.833
		z M185.585,525.79c-5.968,0-10.958-1.133-14.831-3.365c-15.487-8.933-26.143-44.121-15.04-102.601
		c1.148-6.047,2.521-12.269,4.106-18.634c22.887,5.071,48.285,8.749,75.681,10.961c15.525,21.868,31.776,41.947,48.235,59.585
		c-3.577,3.447-7.143,6.733-10.691,9.835C241.372,509.26,208.676,525.79,185.585,525.79z M443.501,413.687
		c12.193,61.605,0.413,99.7-15.694,109.024c-3.771,2.183-8.562,3.29-14.24,3.29c-21.565,0-51.511-15.126-82.159-41.5
		c-4.67-4.019-9.38-8.321-14.108-12.879c15.764-17.225,31.573-37.299,47.115-59.818c27.197-2.424,52.865-6.374,76.049-11.723
		C441.604,404.705,442.622,409.244,443.501,413.687z M466.572,367.965c-3.065,1.016-6.212,1.996-9.422,2.948
		c-7.065-22.409-16.62-46.311-28.46-71.214c11.211-24.176,20.431-47.815,27.327-70.09c5.741,1.663,11.323,3.418,16.712,5.273
		c26.358,9.074,48.293,20.547,63.432,33.179c13.07,10.906,20.269,22.117,20.269,31.567
		C556.43,318.202,528.311,347.509,466.572,367.965z"/>
</g>
</svg>
